<?xml version="1.0" encoding="UTF-8"?>
<!DOCTYPE svg PUBLIC "-//W3C//DTD SVG 1.1//EN" "http://www.w3.org/Graphics/SVG/1.1/DTD/svg11.dtd">
<svg xmlns="http://www.w3.org/2000/svg" version="1.1" width="101px" height="101px" style="shape-rendering:geometricPrecision; text-rendering:geometricPrecision; image-rendering:optimizeQuality; fill-rule:evenodd; clip-rule:evenodd" xmlns:xlink="http://www.w3.org/1999/xlink">
<g><path style="opacity:0.459" fill="#bbb3af" d="M 62.5,2.5 C 60.5853,2.21552 58.9187,2.54885 57.5,3.5C 56.8333,3.83333 56.1667,4.16667 55.5,4.5C 55.4142,3.5041 55.7476,2.67076 56.5,2C 57.8721,1.59826 59.2054,1.09826 60.5,0.5C 61.5223,0.855491 62.189,1.52216 62.5,2.5 Z"/></g>
<g><path style="opacity:0.894" fill="#513e2b" d="M 57.5,3.5 C 58.9187,2.54885 60.5853,2.21552 62.5,2.5C 63.1098,3.39105 63.4431,4.39105 63.5,5.5C 63.1667,5.5 62.8333,5.5 62.5,5.5C 61.8333,5.5 61.5,5.16667 61.5,4.5C 60.4324,3.56552 59.099,3.23219 57.5,3.5 Z"/></g>
<g><path style="opacity:0.251" fill="#c8bdba" d="M 62.5,2.5 C 64.4817,2.99543 66.4817,3.49543 68.5,4C 69.8228,4.81595 70.4894,5.98261 70.5,7.5C 69.2058,6.7101 68.0391,5.7101 67,4.5C 65.9887,5.33663 64.8221,5.66997 63.5,5.5C 63.4431,4.39105 63.1098,3.39105 62.5,2.5 Z"/></g>
<g><path style="opacity:0.973" fill="#635126" d="M 57.5,3.5 C 59.099,3.23219 60.4324,3.56552 61.5,4.5C 60.1667,4.5 58.8333,4.5 57.5,4.5C 57.5,5.83333 57.5,7.16667 57.5,8.5C 56.8333,7.5 56.1667,6.5 55.5,5.5C 55.5,5.16667 55.5,4.83333 55.5,4.5C 56.1667,4.16667 56.8333,3.83333 57.5,3.5 Z"/></g>
<g><path style="opacity:0.09" fill="#bbbab8" d="M 23.5,6.5 C 23.5,6.16667 23.5,5.83333 23.5,5.5C 25.5529,5.40206 27.2196,6.06873 28.5,7.5C 27.8333,7.5 27.1667,7.5 26.5,7.5C 25.391,7.44312 24.391,7.10978 23.5,6.5 Z"/></g>
<g><path style="opacity:0.196" fill="#cacec7" d="M 55.5,4.5 C 55.5,4.83333 55.5,5.16667 55.5,5.5C 53.8828,6.038 52.2161,6.37133 50.5,6.5C 51.7804,5.06873 53.4471,4.40206 55.5,4.5 Z"/></g>
<g><path style="opacity:1" fill="#ceb959" d="M 18.5,4.5 C 20.69,5.74762 21.0234,7.41429 19.5,9.5C 18.1667,9.5 16.8333,9.5 15.5,9.5C 15.5,8.5 15.5,7.5 15.5,6.5C 17.0269,6.57298 18.0269,5.90632 18.5,4.5 Z"/></g>
<g><path style="opacity:0.898" fill="#5c4e22" d="M 18.5,4.5 C 18.7352,3.90326 19.2352,3.56993 20,3.5C 21.3026,3.9783 22.4693,4.64497 23.5,5.5C 23.5,5.83333 23.5,6.16667 23.5,6.5C 21.9519,6.82124 21.2852,7.82124 21.5,9.5C 20.8333,9.5 20.1667,9.5 19.5,9.5C 21.0234,7.41429 20.69,5.74762 18.5,4.5 Z"/></g>
<g><path style="opacity:0.996" fill="#28200c" d="M 23.5,6.5 C 24.391,7.10978 25.391,7.44312 26.5,7.5C 25.7095,8.40128 24.7095,9.06795 23.5,9.5C 22.8333,9.5 22.1667,9.5 21.5,9.5C 21.2852,7.82124 21.9519,6.82124 23.5,6.5 Z"/></g>
<g><path style="opacity:1" fill="#d2bb53" d="M 61.5,4.5 C 61.5,5.16667 61.8333,5.5 62.5,5.5C 62.5,6.16667 62.5,6.83333 62.5,7.5C 61.2524,9.69003 59.5857,10.0234 57.5,8.5C 57.5,7.16667 57.5,5.83333 57.5,4.5C 58.8333,4.5 60.1667,4.5 61.5,4.5 Z"/></g>
<g><path style="opacity:1" fill="#313033" d="M 26.5,7.5 C 27.1667,7.5 27.8333,7.5 28.5,7.5C 28.5,8.16667 28.5,8.83333 28.5,9.5C 27.1667,9.5 26.5,10.1667 26.5,11.5C 25.609,10.8902 24.609,10.5569 23.5,10.5C 23.5,10.1667 23.5,9.83333 23.5,9.5C 24.7095,9.06795 25.7095,8.40128 26.5,7.5 Z"/></g>
<g><path style="opacity:0.478" fill="#a8a6a5" d="M 50.5,6.5 C 50.1667,7.16667 49.8333,7.83333 49.5,8.5C 48.1667,9.16667 47.1667,10.1667 46.5,11.5C 45.8333,12.5 45.1667,13.5 44.5,14.5C 40.5,14.5 36.5,14.5 32.5,14.5C 32.5,14.1667 32.5,13.8333 32.5,13.5C 36.7016,13.8168 40.7016,13.4834 44.5,12.5C 45.5,9.5 47.5,7.5 50.5,6.5 Z"/></g>
<g><path style="opacity:0.827" fill="#625047" d="M 15.5,6.5 C 15.5,7.5 15.5,8.5 15.5,9.5C 16.8333,9.5 18.1667,9.5 19.5,9.5C 20.1667,9.5 20.8333,9.5 21.5,9.5C 22.1667,9.5 22.8333,9.5 23.5,9.5C 23.5,9.83333 23.5,10.1667 23.5,10.5C 20.4977,11.6435 17.4977,11.6435 14.5,10.5C 12.8528,8.51199 13.1861,7.17865 15.5,6.5 Z"/></g>
<g><path style="opacity:1" fill="#25261f" d="M 55.5,5.5 C 55.5,6.83333 55.5,8.16667 55.5,9.5C 53.0532,9.61501 51.0532,10.615 49.5,12.5C 49.5,11.1667 49.5,9.83333 49.5,8.5C 49.8333,7.83333 50.1667,7.16667 50.5,6.5C 52.2161,6.37133 53.8828,6.038 55.5,5.5 Z"/></g>
<g><path style="opacity:0.906" fill="#5f462d" d="M 55.5,5.5 C 56.1667,6.5 56.8333,7.5 57.5,8.5C 59.5857,10.0234 61.2524,9.69003 62.5,7.5C 63.3382,7.84171 63.6716,8.50838 63.5,9.5C 62.1805,10.9418 60.5138,11.6085 58.5,11.5C 57.5084,11.6716 56.8417,11.3382 56.5,10.5C 56.5,9.83333 56.1667,9.5 55.5,9.5C 55.5,8.16667 55.5,6.83333 55.5,5.5 Z"/></g>
<g><path style="opacity:0.169" fill="#d0c9cd" d="M 70.5,7.5 C 72.4123,8.79919 74.4123,9.79919 76.5,10.5C 74.8333,10.5 73.1667,10.5 71.5,10.5C 70.8902,9.60895 70.5569,8.60895 70.5,7.5 Z"/></g>
<g><path style="opacity:1" fill="#2c2b2b" d="M 28.5,9.5 C 30.0269,9.42702 31.0269,10.0937 31.5,11.5C 29.901,11.2322 28.5676,11.5655 27.5,12.5C 27.1667,12.5 26.8333,12.5 26.5,12.5C 26.5,12.1667 26.5,11.8333 26.5,11.5C 26.5,10.1667 27.1667,9.5 28.5,9.5 Z"/></g>
<g><path style="opacity:0.118" fill="#d9d6d6" d="M 28.5,7.5 C 30.9433,8.10874 32.61,9.60874 33.5,12C 37.1516,12.4986 40.8183,12.6653 44.5,12.5C 40.7016,13.4834 36.7016,13.8168 32.5,13.5C 32.1667,12.8333 31.8333,12.1667 31.5,11.5C 31.0269,10.0937 30.0269,9.42702 28.5,9.5C 28.5,8.83333 28.5,8.16667 28.5,7.5 Z"/></g>
<g><path style="opacity:1" fill="#1a1a1e" d="M 49.5,8.5 C 49.5,9.83333 49.5,11.1667 49.5,12.5C 49.5,12.8333 49.5,13.1667 49.5,13.5C 48.5,12.8333 47.5,12.1667 46.5,11.5C 47.1667,10.1667 48.1667,9.16667 49.5,8.5 Z"/></g>
<g><path style="opacity:0.929" fill="#995b3a" d="M 68.5,8.5 C 67.791,9.40397 66.791,9.73731 65.5,9.5C 65.5,10.5 65.5,11.5 65.5,12.5C 65.1667,12.5 64.8333,12.5 64.5,12.5C 64.5,11.8333 64.5,11.1667 64.5,10.5C 64.616,6.43657 65.9493,5.7699 68.5,8.5 Z"/></g>
<g><path style="opacity:1" fill="#7b3612" d="M 68.5,8.5 C 69.3382,8.84171 69.6716,9.50838 69.5,10.5C 68.1667,11.1667 66.8333,11.8333 65.5,12.5C 65.5,11.5 65.5,10.5 65.5,9.5C 66.791,9.73731 67.791,9.40397 68.5,8.5 Z"/></g>
<g><path style="opacity:0.996" fill="#693d26" d="M 70.5,7.5 C 70.5569,8.60895 70.8902,9.60895 71.5,10.5C 71.5,10.8333 71.5,11.1667 71.5,11.5C 71.5,12.1667 71.1667,12.5 70.5,12.5C 70.6716,11.5084 70.3382,10.8417 69.5,10.5C 69.6716,9.50838 69.3382,8.84171 68.5,8.5C 65.9493,5.7699 64.616,6.43657 64.5,10.5C 63.8333,10.5 63.5,10.1667 63.5,9.5C 63.6716,8.50838 63.3382,7.84171 62.5,7.5C 62.5,6.83333 62.5,6.16667 62.5,5.5C 62.8333,5.5 63.1667,5.5 63.5,5.5C 64.8221,5.66997 65.9887,5.33663 67,4.5C 68.0391,5.7101 69.2058,6.7101 70.5,7.5 Z"/></g>
<g><path style="opacity:0.275" fill="#a7a3ab" d="M 23.5,10.5 C 24.609,10.5569 25.609,10.8902 26.5,11.5C 26.5,11.8333 26.5,12.1667 26.5,12.5C 24.9731,12.573 23.9731,11.9063 23.5,10.5 Z"/></g>
<g><path style="opacity:0.09" fill="#c3c3c6" d="M 55.5,9.5 C 56.1667,9.5 56.5,9.83333 56.5,10.5C 54.0313,11.5686 51.6979,12.9019 49.5,14.5C 49.5,14.1667 49.5,13.8333 49.5,13.5C 49.5,13.1667 49.5,12.8333 49.5,12.5C 51.0532,10.615 53.0532,9.61501 55.5,9.5 Z"/></g>
<g><path style="opacity:0.018" fill="#e8dbe7" d="M 63.5,9.5 C 63.5,10.1667 63.8333,10.5 64.5,10.5C 64.5,11.1667 64.5,11.8333 64.5,12.5C 62.4939,12.4829 60.4939,12.1496 58.5,11.5C 60.5138,11.6085 62.1805,10.9418 63.5,9.5 Z"/></g>
<g><path style="opacity:1" fill="#2b1f24" d="M 27.5,12.5 C 28.5676,11.5655 29.901,11.2322 31.5,11.5C 31.8333,12.1667 32.1667,12.8333 32.5,13.5C 32.5,13.8333 32.5,14.1667 32.5,14.5C 31.791,15.404 30.791,15.7373 29.5,15.5C 29.0679,14.2905 28.4013,13.2905 27.5,12.5 Z"/></g>
<g><path style="opacity:1" fill="#9c6752" d="M 69.5,10.5 C 70.3382,10.8417 70.6716,11.5084 70.5,12.5C 68.7809,13.0221 67.4475,14.0221 66.5,15.5C 66.1667,15.5 65.8333,15.5 65.5,15.5C 65.5,15.1667 65.5,14.8333 65.5,14.5C 65.1667,13.8333 64.8333,13.1667 64.5,12.5C 64.8333,12.5 65.1667,12.5 65.5,12.5C 66.8333,11.8333 68.1667,11.1667 69.5,10.5 Z"/></g>
<g><path style="opacity:1" fill="#262531" d="M 46.5,11.5 C 47.5,12.1667 48.5,12.8333 49.5,13.5C 49.5,13.8333 49.5,14.1667 49.5,14.5C 48.8333,14.5 48.5,14.8333 48.5,15.5C 47.1667,15.5 45.8333,15.5 44.5,15.5C 44.5,15.1667 44.5,14.8333 44.5,14.5C 45.1667,13.5 45.8333,12.5 46.5,11.5 Z"/></g>
<g><path style="opacity:1" fill="#6c4436" d="M 71.5,11.5 C 72.4916,11.3284 73.1583,11.6618 73.5,12.5C 72.8333,12.5 72.5,12.8333 72.5,13.5C 71.1805,14.9418 69.5138,15.6085 67.5,15.5C 67.1667,15.5 66.8333,15.5 66.5,15.5C 67.4475,14.0221 68.7809,13.0221 70.5,12.5C 71.1667,12.5 71.5,12.1667 71.5,11.5 Z"/></g>
<g><path style="opacity:0.976" fill="#503a14" d="M 32.5,14.5 C 36.5,14.5 40.5,14.5 44.5,14.5C 44.5,14.8333 44.5,15.1667 44.5,15.5C 44.5,15.8333 44.5,16.1667 44.5,16.5C 43.8333,16.5 43.1667,16.5 42.5,16.5C 42.1667,16.5 41.8333,16.5 41.5,16.5C 38.8333,15.1667 36.1667,15.1667 33.5,16.5C 31.4862,16.3915 29.8195,17.0582 28.5,18.5C 28.5,18.1667 28.5,17.8333 28.5,17.5C 28.8333,16.8333 29.1667,16.1667 29.5,15.5C 30.791,15.7373 31.791,15.404 32.5,14.5 Z"/></g>
<g><path style="opacity:1" fill="#a8a8aa" d="M 72.5,13.5 C 72.5,12.8333 72.8333,12.5 73.5,12.5C 75.7409,13.2998 76.7409,14.9664 76.5,17.5C 75.8333,17.5 75.1667,17.5 74.5,17.5C 74.3404,15.847 73.6737,14.5137 72.5,13.5 Z"/></g>
<g><path style="opacity:0.847" fill="#554f52" d="M 71.5,11.5 C 71.5,11.1667 71.5,10.8333 71.5,10.5C 73.1667,10.5 74.8333,10.5 76.5,10.5C 76.8592,13.2367 78.1925,15.2367 80.5,16.5C 80.5,17.1667 80.1667,17.5 79.5,17.5C 78.8333,17.5 78.1667,17.5 77.5,17.5C 77.1667,17.5 76.8333,17.5 76.5,17.5C 76.7409,14.9664 75.7409,13.2998 73.5,12.5C 73.1583,11.6618 72.4916,11.3284 71.5,11.5 Z"/></g>
<g><path style="opacity:0.306" fill="#c1bcb8" d="M 76.5,10.5 C 80.2692,12.9374 82.9358,16.2708 84.5,20.5C 83.1667,19.1667 81.8333,17.8333 80.5,16.5C 78.1925,15.2367 76.8592,13.2367 76.5,10.5 Z"/></g>
<g><path style="opacity:0.569" fill="#a0958a" d="M 26.5,12.5 C 26.8333,12.5 27.1667,12.5 27.5,12.5C 28.4013,13.2905 29.0679,14.2905 29.5,15.5C 29.1667,16.1667 28.8333,16.8333 28.5,17.5C 27.5,18.1667 26.5,18.8333 25.5,19.5C 25.5,19.1667 25.5,18.8333 25.5,18.5C 27.5314,16.7508 27.8647,14.7508 26.5,12.5 Z"/></g>
<g><path style="opacity:0.914" fill="#47443a" d="M 44.5,16.5 C 44.5,16.1667 44.5,15.8333 44.5,15.5C 45.8333,15.5 47.1667,15.5 48.5,15.5C 48.7376,17.4044 49.7376,18.7377 51.5,19.5C 50.791,20.404 49.791,20.7373 48.5,20.5C 48.1667,18.1667 46.8333,16.8333 44.5,16.5 Z"/></g>
<g><path style="opacity:0.537" fill="#c4c5c2" d="M 65.5,14.5 C 65.5,14.8333 65.5,15.1667 65.5,15.5C 66.1587,18.4552 66.4921,21.4552 66.5,24.5C 65.6943,21.7217 64.6943,18.8884 63.5,16C 63.8361,14.9701 64.5028,14.4701 65.5,14.5 Z"/></g>
<g><path style="opacity:1" fill="#c6a433" d="M 41.5,16.5 C 40.8333,16.5 40.1667,16.5 39.5,16.5C 37.6883,16.7713 36.0217,17.438 34.5,18.5C 35.2427,19.1818 35.9094,19.8485 36.5,20.5C 34.8333,20.5 33.1667,20.5 31.5,20.5C 32.1098,19.609 32.4431,18.609 32.5,17.5C 33.1667,17.5 33.5,17.1667 33.5,16.5C 36.1667,15.1667 38.8333,15.1667 41.5,16.5 Z"/></g>
<g><path style="opacity:1" fill="#dad4d2" d="M 72.5,13.5 C 73.6737,14.5137 74.3404,15.847 74.5,17.5C 73.1007,18.8897 71.4341,19.8897 69.5,20.5C 69.1667,20.5 68.8333,20.5 68.5,20.5C 67.962,18.8828 67.6287,17.2161 67.5,15.5C 69.5138,15.6085 71.1805,14.9418 72.5,13.5 Z"/></g>
<g><path style="opacity:1" fill="#edc32a" d="M 39.5,16.5 C 39.5,16.8333 39.5,17.1667 39.5,17.5C 39.5,18.8333 39.5,20.1667 39.5,21.5C 38.391,21.4431 37.391,21.1098 36.5,20.5C 35.9094,19.8485 35.2427,19.1818 34.5,18.5C 36.0217,17.438 37.6883,16.7713 39.5,16.5 Z"/></g>
<g><path style="opacity:1" fill="#eaba3e" d="M 39.5,17.5 C 39.5,17.1667 39.5,16.8333 39.5,16.5C 40.1667,16.5 40.8333,16.5 41.5,16.5C 41.8333,16.5 42.1667,16.5 42.5,16.5C 45.4799,17.8293 46.8132,20.1626 46.5,23.5C 45.8333,23.1667 45.1667,22.8333 44.5,22.5C 44.8244,19.306 43.6578,18.306 41,19.5C 40.7216,18.5842 40.2216,17.9175 39.5,17.5 Z"/></g>
<g><path style="opacity:0.161" fill="#d7dfdd" d="M 49.5,14.5 C 50.962,17.0391 52.6287,19.3724 54.5,21.5C 53.5,20.8333 52.5,20.1667 51.5,19.5C 49.7376,18.7377 48.7376,17.4044 48.5,15.5C 48.5,14.8333 48.8333,14.5 49.5,14.5 Z"/></g>
<g><path style="opacity:1" fill="#735e4e" d="M 74.5,17.5 C 75.1667,17.5 75.8333,17.5 76.5,17.5C 76.8333,17.5 77.1667,17.5 77.5,17.5C 77.1667,18.1667 76.8333,18.8333 76.5,19.5C 74.0462,20.2271 71.7128,21.2271 69.5,22.5C 69.5,21.8333 69.5,21.1667 69.5,20.5C 71.4341,19.8897 73.1007,18.8897 74.5,17.5 Z"/></g>
<g><path style="opacity:0.827" fill="#59544f" d="M 65.5,15.5 C 65.8333,15.5 66.1667,15.5 66.5,15.5C 66.8333,15.5 67.1667,15.5 67.5,15.5C 67.6287,17.2161 67.962,18.8828 68.5,20.5C 67.5655,21.5676 67.2322,22.901 67.5,24.5C 67.1667,24.5 66.8333,24.5 66.5,24.5C 66.4921,21.4552 66.1587,18.4552 65.5,15.5 Z"/></g>
<g><path style="opacity:1" fill="#cca04f" d="M 77.5,17.5 C 78.1667,17.5 78.8333,17.5 79.5,17.5C 80.1098,18.391 80.4431,19.391 80.5,20.5C 80.1667,20.5 79.8333,20.5 79.5,20.5C 77.5956,20.7376 76.2623,21.7376 75.5,23.5C 74.5,23.5 73.5,23.5 72.5,23.5C 74.1392,22.5275 75.4726,21.1942 76.5,19.5C 76.8333,18.8333 77.1667,18.1667 77.5,17.5 Z"/></g>
<g><path style="opacity:1" fill="#734e27" d="M 80.5,16.5 C 81.8333,17.8333 83.1667,19.1667 84.5,20.5C 84.5569,21.609 84.8902,22.609 85.5,23.5C 84.5269,25.9479 84.1936,28.6146 84.5,31.5C 84.1667,31.5 83.8333,31.5 83.5,31.5C 83.6646,28.4816 83.498,25.4816 83,22.5C 82.2917,21.6195 81.4584,20.9528 80.5,20.5C 80.4431,19.391 80.1098,18.391 79.5,17.5C 80.1667,17.5 80.5,17.1667 80.5,16.5 Z"/></g>
<g><path style="opacity:1" fill="#645b35" d="M 28.5,17.5 C 28.5,17.8333 28.5,18.1667 28.5,18.5C 27.075,19.922 26.075,21.5887 25.5,23.5C 23.9348,25.5093 22.9348,27.8427 22.5,30.5C 21.5773,34.0641 21.244,37.7307 21.5,41.5C 21.1667,41.5 20.8333,41.5 20.5,41.5C 19.5206,38.3752 19.1872,35.0419 19.5,31.5C 19.4095,28.8478 20.0762,26.5145 21.5,24.5C 23.0627,23.0552 24.396,21.3885 25.5,19.5C 26.5,18.8333 27.5,18.1667 28.5,17.5 Z"/></g>
<g><path style="opacity:1" fill="#f4eaa5" d="M 42.5,16.5 C 43.1667,16.5 43.8333,16.5 44.5,16.5C 46.8333,16.8333 48.1667,18.1667 48.5,20.5C 47.8902,21.391 47.5569,22.391 47.5,23.5C 47.1667,23.5 46.8333,23.5 46.5,23.5C 46.8132,20.1626 45.4799,17.8293 42.5,16.5 Z"/></g>
<g><path style="opacity:0.949" fill="#666965" d="M 51.5,19.5 C 52.5,20.1667 53.5,20.8333 54.5,21.5C 54.5,22.8333 54.5,24.1667 54.5,25.5C 52.0876,25.756 50.4209,24.756 49.5,22.5C 48.6143,23.325 48.281,24.325 48.5,25.5C 48.1667,25.5 47.8333,25.5 47.5,25.5C 47.5,24.8333 47.5,24.1667 47.5,23.5C 47.5569,22.391 47.8902,21.391 48.5,20.5C 49.791,20.7373 50.791,20.404 51.5,19.5 Z"/></g>
<g><path style="opacity:1" fill="#aa934e" d="M 33.5,16.5 C 33.5,17.1667 33.1667,17.5 32.5,17.5C 30.8333,18.5 29.5,19.8333 28.5,21.5C 27.5,22.1667 26.5,22.8333 25.5,23.5C 26.075,21.5887 27.075,19.922 28.5,18.5C 29.8195,17.0582 31.4862,16.3915 33.5,16.5 Z"/></g>
<g><path style="opacity:1" fill="#d4b567" d="M 31.5,20.5 C 33.1667,20.5 34.8333,20.5 36.5,20.5C 37.391,21.1098 38.391,21.4431 39.5,21.5C 39.8751,23.6976 40.5418,25.6976 41.5,27.5C 41.5,28.5 41.5,29.5 41.5,30.5C 40.8333,30.5 40.1667,30.5 39.5,30.5C 39.7845,28.5853 39.4511,26.9187 38.5,25.5C 37.7436,21.8208 35.7436,20.8208 32.5,22.5C 32.1984,25.0593 32.5318,27.3926 33.5,29.5C 35.1667,30.1667 36.8333,30.8333 38.5,31.5C 38.5,32.5 38.5,33.5 38.5,34.5C 38.1667,34.5 37.8333,34.5 37.5,34.5C 37.5,33.5 37.5,32.5 37.5,31.5C 35.8333,31.5 34.1667,31.5 32.5,31.5C 32.5,30.8333 32.1667,30.5 31.5,30.5C 31.5,30.1667 31.5,29.8333 31.5,29.5C 31.8016,26.9407 31.4682,24.6074 30.5,22.5C 30.3284,21.5084 30.6618,20.8417 31.5,20.5 Z"/></g>
<g><path style="opacity:1" fill="#f4c11d" d="M 39.5,17.5 C 40.2216,17.9175 40.7216,18.5842 41,19.5C 43.6578,18.306 44.8244,19.306 44.5,22.5C 44.4142,23.4959 44.7476,24.3292 45.5,25C 44.552,25.4828 43.552,25.6495 42.5,25.5C 42.5323,23.3812 41.5323,22.0478 39.5,21.5C 39.5,20.1667 39.5,18.8333 39.5,17.5 Z"/></g>
<g><path style="opacity:0.341" fill="#cabfbb" d="M 84.5,20.5 C 85.8333,21.1667 86.8333,22.1667 87.5,23.5C 87.1667,23.5 86.8333,23.5 86.5,23.5C 86.1667,23.5 85.8333,23.5 85.5,23.5C 84.8902,22.609 84.5569,21.609 84.5,20.5 Z"/></g>
<g><path style="opacity:0.141" fill="#d4d5d7" d="M 54.5,21.5 C 55.6118,23.5994 56.2785,25.9327 56.5,28.5C 56.5,29.1667 56.5,29.8333 56.5,30.5C 56.1667,30.5 55.8333,30.5 55.5,30.5C 55.634,28.7085 55.3007,27.0418 54.5,25.5C 54.5,24.1667 54.5,22.8333 54.5,21.5 Z"/></g>
<g><path style="opacity:1" fill="#3d3221" d="M 68.5,20.5 C 68.8333,20.5 69.1667,20.5 69.5,20.5C 69.5,21.1667 69.5,21.8333 69.5,22.5C 69.5,23.1667 69.5,23.8333 69.5,24.5C 69.7373,25.791 69.404,26.791 68.5,27.5C 68.4431,26.391 68.1098,25.391 67.5,24.5C 67.2322,22.901 67.5655,21.5676 68.5,20.5 Z"/></g>
<g><path style="opacity:1" fill="#cba572" d="M 76.5,19.5 C 75.4726,21.1942 74.1392,22.5275 72.5,23.5C 71.5084,23.3284 70.8417,23.6618 70.5,24.5C 70.1667,24.5 69.8333,24.5 69.5,24.5C 69.5,23.8333 69.5,23.1667 69.5,22.5C 71.7128,21.2271 74.0462,20.2271 76.5,19.5 Z"/></g>
<g><path style="opacity:0.145" fill="#d6d1bb" d="M 25.5,18.5 C 25.5,18.8333 25.5,19.1667 25.5,19.5C 24.396,21.3885 23.0627,23.0552 21.5,24.5C 21.8449,21.8021 23.1782,19.8021 25.5,18.5 Z"/></g>
<g><path style="opacity:1" fill="#a78f41" d="M 28.5,21.5 C 27.5,23.5 26.5,25.5 25.5,27.5C 24.5987,28.2905 23.9321,29.2905 23.5,30.5C 23.1667,30.5 22.8333,30.5 22.5,30.5C 22.9348,27.8427 23.9348,25.5093 25.5,23.5C 26.5,22.8333 27.5,22.1667 28.5,21.5 Z"/></g>
<g><path style="opacity:1" fill="#7c7056" d="M 32.5,22.5 C 35.7436,20.8208 37.7436,21.8208 38.5,25.5C 37.5,25.5 36.5,25.5 35.5,25.5C 34.8999,24.0998 33.8999,23.0998 32.5,22.5 Z"/></g>
<g><path style="opacity:1" fill="#f6b21d" d="M 72.5,23.5 C 73.5,23.5 74.5,23.5 75.5,23.5C 77.1042,24.287 77.7709,25.6203 77.5,27.5C 74.0427,28.9083 72.376,27.5749 72.5,23.5 Z"/></g>
<g><path style="opacity:1" fill="#b79530" d="M 32.5,17.5 C 32.4431,18.609 32.1098,19.609 31.5,20.5C 30.6618,20.8417 30.3284,21.5084 30.5,22.5C 30.1667,23.1667 29.8333,23.8333 29.5,24.5C 28.2719,25.3065 27.2719,26.3065 26.5,27.5C 26.1667,27.5 25.8333,27.5 25.5,27.5C 26.5,25.5 27.5,23.5 28.5,21.5C 29.5,19.8333 30.8333,18.5 32.5,17.5 Z"/></g>
<g><path style="opacity:1" fill="#29280d" d="M 32.5,22.5 C 33.8999,23.0998 34.8999,24.0998 35.5,25.5C 34.8333,26.8333 34.1667,28.1667 33.5,29.5C 32.5318,27.3926 32.1984,25.0593 32.5,22.5 Z"/></g>
<g><path style="opacity:1" fill="#eabf2c" d="M 39.5,21.5 C 41.5323,22.0478 42.5323,23.3812 42.5,25.5C 42.5,26.1667 42.5,26.8333 42.5,27.5C 42.1667,27.5 41.8333,27.5 41.5,27.5C 40.5418,25.6976 39.8751,23.6976 39.5,21.5 Z"/></g>
<g><path style="opacity:1" fill="#252416" d="M 54.5,25.5 C 55.3007,27.0418 55.634,28.7085 55.5,30.5C 55.1667,30.5 54.8333,30.5 54.5,30.5C 54.1667,30.5 53.8333,30.5 53.5,30.5C 52.7375,29.7321 51.7375,29.2321 50.5,29C 51.5368,27.1492 50.8701,25.9825 48.5,25.5C 48.281,24.325 48.6143,23.325 49.5,22.5C 50.4209,24.756 52.0876,25.756 54.5,25.5 Z"/></g>
<g><path style="opacity:1" fill="#7f664a" d="M 69.5,24.5 C 69.8333,24.5 70.1667,24.5 70.5,24.5C 70.6596,26.153 71.3263,27.4863 72.5,28.5C 72.5,28.8333 72.5,29.1667 72.5,29.5C 72.1667,29.5 71.8333,29.5 71.5,29.5C 70.8333,30.5 70.1667,31.5 69.5,32.5C 69.3713,30.7839 69.038,29.1172 68.5,27.5C 69.404,26.791 69.7373,25.791 69.5,24.5 Z"/></g>
<g><path style="opacity:1" fill="#c18533" d="M 80.5,20.5 C 81.4584,20.9528 82.2917,21.6195 83,22.5C 83.498,25.4816 83.6646,28.4816 83.5,31.5C 82.5655,30.4324 82.2322,29.099 82.5,27.5C 82.5997,24.8915 81.9331,22.5582 80.5,20.5 Z"/></g>
<g><path style="opacity:0.22" fill="#b2b5bb" d="M 87.5,23.5 C 88.9063,23.9731 89.573,24.9731 89.5,26.5C 88.0937,26.0269 87.427,25.0269 87.5,23.5 Z"/></g>
<g><path style="opacity:1" fill="#edba1e" d="M 44.5,22.5 C 45.1667,22.8333 45.8333,23.1667 46.5,23.5C 46.5,24.5 46.5,25.5 46.5,26.5C 45.325,26.281 44.325,26.6143 43.5,27.5C 45.0049,28.8415 45.6715,30.5082 45.5,32.5C 43.2729,31.5994 42.2729,29.9328 42.5,27.5C 42.5,26.8333 42.5,26.1667 42.5,25.5C 43.552,25.6495 44.552,25.4828 45.5,25C 44.7476,24.3292 44.4142,23.4959 44.5,22.5 Z"/></g>
<g><path style="opacity:1" fill="#f9c41f" d="M 46.5,26.5 C 46.7583,28.8098 46.7583,30.8098 46.5,32.5C 46.1667,32.5 45.8333,32.5 45.5,32.5C 45.6715,30.5082 45.0049,28.8415 43.5,27.5C 44.325,26.6143 45.325,26.281 46.5,26.5 Z"/></g>
<g><path style="opacity:1" fill="#3e350a" d="M 48.5,25.5 C 50.8701,25.9825 51.5368,27.1492 50.5,29C 51.7375,29.2321 52.7375,29.7321 53.5,30.5C 49.8493,30.8383 48.1826,29.1716 48.5,25.5 Z"/></g>
<g><path style="opacity:0.129" fill="#cecbce" d="M 66.5,24.5 C 66.8333,24.5 67.1667,24.5 67.5,24.5C 68.1098,25.391 68.4431,26.391 68.5,27.5C 67.0937,27.0269 66.427,26.0269 66.5,24.5 Z"/></g>
<g><path style="opacity:1" fill="#f6b229" d="M 79.5,20.5 C 80.4385,22.9103 80.4385,25.2436 79.5,27.5C 78.8333,27.5 78.1667,27.5 77.5,27.5C 77.7709,25.6203 77.1042,24.287 75.5,23.5C 76.2623,21.7376 77.5956,20.7376 79.5,20.5 Z"/></g>
<g><path style="opacity:1" fill="#3b3538" d="M 86.5,23.5 C 86.8333,23.5 87.1667,23.5 87.5,23.5C 87.427,25.0269 88.0937,26.0269 89.5,26.5C 89.5,27.1667 89.5,27.8333 89.5,28.5C 88.603,27.4019 87.7697,27.4019 87,28.5C 86.5065,26.8659 86.3398,25.1992 86.5,23.5 Z"/></g>
<g><path style="opacity:1" fill="#eacc54" d="M 30.5,22.5 C 31.4682,24.6074 31.8016,26.9407 31.5,29.5C 30.8333,28.8333 30.1667,28.1667 29.5,27.5C 29.5,26.5 29.5,25.5 29.5,24.5C 29.8333,23.8333 30.1667,23.1667 30.5,22.5 Z"/></g>
<g><path style="opacity:1" fill="#e7981b" d="M 79.5,20.5 C 79.8333,20.5 80.1667,20.5 80.5,20.5C 81.9331,22.5582 82.5997,24.8915 82.5,27.5C 81.7777,28.5511 80.7777,29.2178 79.5,29.5C 79.5,28.8333 79.5,28.1667 79.5,27.5C 80.4385,25.2436 80.4385,22.9103 79.5,20.5 Z"/></g>
<g><path style="opacity:1" fill="#392007" d="M 85.5,23.5 C 85.0548,26.3646 85.7215,28.8646 87.5,31C 86.944,31.3826 86.6107,31.8826 86.5,32.5C 85.8333,32.1667 85.1667,31.8333 84.5,31.5C 84.1936,28.6146 84.5269,25.9479 85.5,23.5 Z"/></g>
<g><path style="opacity:1" fill="#d9b124" d="M 29.5,24.5 C 29.5,25.5 29.5,26.5 29.5,27.5C 28.8333,28.8333 28.1667,30.1667 27.5,31.5C 27.5,32.1667 27.5,32.8333 27.5,33.5C 27.5,34.1667 27.5,34.8333 27.5,35.5C 26.5386,37.2646 26.2053,39.2646 26.5,41.5C 25.4026,36.9874 25.4026,32.3208 26.5,27.5C 27.2719,26.3065 28.2719,25.3065 29.5,24.5 Z"/></g>
<g><path style="opacity:1" fill="#ebc32a" d="M 29.5,27.5 C 30.1667,28.1667 30.8333,28.8333 31.5,29.5C 31.5,29.8333 31.5,30.1667 31.5,30.5C 31.5,30.8333 31.5,31.1667 31.5,31.5C 30.1667,31.5 28.8333,31.5 27.5,31.5C 28.1667,30.1667 28.8333,28.8333 29.5,27.5 Z"/></g>
<g><path style="opacity:1" fill="#262018" d="M 35.5,25.5 C 36.5,25.5 37.5,25.5 38.5,25.5C 38.5,26.8333 38.5,28.1667 38.5,29.5C 36.8333,29.5 35.1667,29.5 33.5,29.5C 34.1667,28.1667 34.8333,26.8333 35.5,25.5 Z"/></g>
<g><path style="opacity:1" fill="#453512" d="M 38.5,25.5 C 39.4511,26.9187 39.7845,28.5853 39.5,30.5C 39.5,30.8333 39.5,31.1667 39.5,31.5C 39.1667,31.5 38.8333,31.5 38.5,31.5C 36.8333,30.8333 35.1667,30.1667 33.5,29.5C 35.1667,29.5 36.8333,29.5 38.5,29.5C 38.5,28.1667 38.5,26.8333 38.5,25.5 Z"/></g>
<g><path style="opacity:1" fill="#d9bf68" d="M 47.5,25.5 C 47.8333,25.5 48.1667,25.5 48.5,25.5C 48.1826,29.1716 49.8493,30.8383 53.5,30.5C 53.8333,30.5 54.1667,30.5 54.5,30.5C 54.5,31.8333 54.5,33.1667 54.5,34.5C 53.5,34.5 52.5,34.5 51.5,34.5C 52.0906,33.8485 52.7573,33.1818 53.5,32.5C 51.9547,31.5481 50.288,31.2148 48.5,31.5C 47.6586,29.6208 47.3253,27.6208 47.5,25.5 Z"/></g>
<g><path style="opacity:1" fill="#d59c25" d="M 72.5,23.5 C 72.376,27.5749 74.0427,28.9083 77.5,27.5C 78.1667,27.5 78.8333,27.5 79.5,27.5C 79.5,28.1667 79.5,28.8333 79.5,29.5C 78.6618,29.8417 78.3284,30.5084 78.5,31.5C 77.6618,31.8417 77.3284,32.5084 77.5,33.5C 77.5,33.8333 77.5,34.1667 77.5,34.5C 76.3107,32.1331 74.644,30.1331 72.5,28.5C 71.3263,27.4863 70.6596,26.153 70.5,24.5C 70.8417,23.6618 71.5084,23.3284 72.5,23.5 Z"/></g>
<g><path style="opacity:1" fill="#eac034" d="M 46.5,23.5 C 46.8333,23.5 47.1667,23.5 47.5,23.5C 47.5,24.1667 47.5,24.8333 47.5,25.5C 47.3253,27.6208 47.6586,29.6208 48.5,31.5C 48.5,32.8333 47.8333,33.5 46.5,33.5C 46.5,33.1667 46.5,32.8333 46.5,32.5C 46.7583,30.8098 46.7583,28.8098 46.5,26.5C 46.5,25.5 46.5,24.5 46.5,23.5 Z"/></g>
<g><path style="opacity:0.188" fill="#d9d9da" d="M 61.5,36.5 C 63.0808,34.8583 63.7475,32.8583 63.5,30.5C 62.5,30.5 61.5,30.5 60.5,30.5C 60.1667,30.5 59.8333,30.5 59.5,30.5C 59.5,30.1667 59.5,29.8333 59.5,29.5C 62.0225,27.5531 64.0225,28.3865 65.5,32C 65.1778,34.521 63.8445,36.021 61.5,36.5 Z"/></g>
<g><path style="opacity:0.973" fill="#2e1f1d" d="M 85.5,23.5 C 85.8333,23.5 86.1667,23.5 86.5,23.5C 86.3398,25.1992 86.5065,26.8659 87,28.5C 87.7697,27.4019 88.603,27.4019 89.5,28.5C 89.5,30.1667 89.5,31.8333 89.5,33.5C 89.1667,33.5 88.8333,33.5 88.5,33.5C 87.8333,33.1667 87.1667,32.8333 86.5,32.5C 86.6107,31.8826 86.944,31.3826 87.5,31C 85.7215,28.8646 85.0548,26.3646 85.5,23.5 Z"/></g>
<g><path style="opacity:0.502" fill="#a5999b" d="M 89.5,26.5 C 90.9238,28.5145 91.5905,30.8478 91.5,33.5C 90.8333,33.5 90.1667,33.5 89.5,33.5C 89.5,31.8333 89.5,30.1667 89.5,28.5C 89.5,27.8333 89.5,27.1667 89.5,26.5 Z"/></g>
<g><path style="opacity:1" fill="#b59423" d="M 25.5,27.5 C 25.8333,27.5 26.1667,27.5 26.5,27.5C 25.4026,32.3208 25.4026,36.9874 26.5,41.5C 26.5,41.8333 26.5,42.1667 26.5,42.5C 25.5041,42.5858 24.6708,42.2524 24,41.5C 23.5014,37.8484 23.3347,34.1817 23.5,30.5C 23.9321,29.2905 24.5987,28.2905 25.5,27.5 Z"/></g>
<g><path style="opacity:1" fill="#e2b946" d="M 41.5,27.5 C 41.8333,27.5 42.1667,27.5 42.5,27.5C 42.2729,29.9328 43.2729,31.5994 45.5,32.5C 45.8333,32.5 46.1667,32.5 46.5,32.5C 46.5,32.8333 46.5,33.1667 46.5,33.5C 45.8333,33.5 45.1667,33.5 44.5,33.5C 43.1667,32.8333 42.1667,31.8333 41.5,30.5C 41.5,29.5 41.5,28.5 41.5,27.5 Z"/></g>
<g><path style="opacity:0.051" fill="#f4ebe9" d="M 56.5,28.5 C 57.2216,28.9175 57.7216,29.5842 58,30.5C 58.3826,29.944 58.8826,29.6107 59.5,29.5C 59.5,29.8333 59.5,30.1667 59.5,30.5C 59.1788,32.0481 58.1788,32.7148 56.5,32.5C 56.5,31.8333 56.5,31.1667 56.5,30.5C 56.5,29.8333 56.5,29.1667 56.5,28.5 Z"/></g>
<g><path style="opacity:1" fill="#e7b321" d="M 82.5,27.5 C 82.2322,29.099 82.5655,30.4324 83.5,31.5C 83.5,32.1667 83.5,32.8333 83.5,33.5C 81.6776,33.1692 80.0109,32.5025 78.5,31.5C 78.3284,30.5084 78.6618,29.8417 79.5,29.5C 80.7777,29.2178 81.7777,28.5511 82.5,27.5 Z"/></g>
<g><path style="opacity:0.935" fill="#676668" d="M 59.5,30.5 C 59.8333,30.5 60.1667,30.5 60.5,30.5C 63.4017,32.605 63.0684,33.9383 59.5,34.5C 59.1667,34.5 58.8333,34.5 58.5,34.5C 57.8333,33.8333 57.1667,33.1667 56.5,32.5C 58.1788,32.7148 59.1788,32.0481 59.5,30.5 Z"/></g>
<g><path style="opacity:1" fill="#fdbe15" d="M 27.5,31.5 C 28.8333,31.5 30.1667,31.5 31.5,31.5C 31.5,32.1667 31.5,32.8333 31.5,33.5C 30.2946,34.6857 28.9613,34.6857 27.5,33.5C 27.5,32.8333 27.5,32.1667 27.5,31.5 Z"/></g>
<g><path style="opacity:1" fill="#eec54b" d="M 32.5,31.5 C 34.1667,31.5 35.8333,31.5 37.5,31.5C 37.5,32.5 37.5,33.5 37.5,34.5C 36.391,34.4431 35.391,34.1098 34.5,33.5C 33.5,33.1667 32.8333,32.5 32.5,31.5 Z"/></g>
<g><path style="opacity:1" fill="#5b450b" d="M 38.5,31.5 C 38.8333,31.5 39.1667,31.5 39.5,31.5C 39.5,31.8333 39.5,32.1667 39.5,32.5C 40.4006,34.7271 42.0672,35.7271 44.5,35.5C 47.6922,36.7001 50.3589,37.7001 52.5,38.5C 48.8019,38.4476 45.1352,38.1143 41.5,37.5C 40.8333,36.1667 39.8333,35.1667 38.5,34.5C 38.5,33.5 38.5,32.5 38.5,31.5 Z"/></g>
<g><path style="opacity:1" fill="#684a14" d="M 39.5,30.5 C 40.1667,30.5 40.8333,30.5 41.5,30.5C 42.1667,31.8333 43.1667,32.8333 44.5,33.5C 44.44,34.0431 44.1067,34.3764 43.5,34.5C 42.3777,33.3698 41.0443,32.7031 39.5,32.5C 39.5,32.1667 39.5,31.8333 39.5,31.5C 39.5,31.1667 39.5,30.8333 39.5,30.5 Z"/></g>
<g><path style="opacity:1" fill="#e3b94b" d="M 48.5,31.5 C 50.288,31.2148 51.9547,31.5481 53.5,32.5C 52.7573,33.1818 52.0906,33.8485 51.5,34.5C 49.5853,34.7845 47.9187,34.4511 46.5,33.5C 47.8333,33.5 48.5,32.8333 48.5,31.5 Z"/></g>
<g><path style="opacity:1" fill="#342728" d="M 71.5,29.5 C 72.6298,31.3146 73.2964,33.3146 73.5,35.5C 71.5168,35.8432 70.1834,35.1765 69.5,33.5C 69.5,33.1667 69.5,32.8333 69.5,32.5C 70.1667,31.5 70.8333,30.5 71.5,29.5 Z"/></g>
<g><path style="opacity:1" fill="#f5b216" d="M 78.5,31.5 C 80.0109,32.5025 81.6776,33.1692 83.5,33.5C 83.5,33.8333 83.5,34.1667 83.5,34.5C 81.4352,34.4828 79.4352,34.1495 77.5,33.5C 77.3284,32.5084 77.6618,31.8417 78.5,31.5 Z"/></g>
<g><path style="opacity:1" fill="#895f26" d="M 84.5,31.5 C 85.1667,31.8333 85.8333,32.1667 86.5,32.5C 87.1667,32.8333 87.8333,33.1667 88.5,33.5C 88.8333,34.1667 89.1667,34.8333 89.5,35.5C 89.1667,35.5 88.8333,35.5 88.5,35.5C 86.2273,35.0432 84.894,33.7099 84.5,31.5 Z"/></g>
<g><path style="opacity:1" fill="#a38f42" d="M 22.5,30.5 C 22.8333,30.5 23.1667,30.5 23.5,30.5C 23.3347,34.1817 23.5014,37.8484 24,41.5C 24.6708,42.2524 25.5041,42.5858 26.5,42.5C 26.5,42.8333 26.5,43.1667 26.5,43.5C 24.4458,43.6347 22.7791,42.968 21.5,41.5C 21.244,37.7307 21.5773,34.0641 22.5,30.5 Z"/></g>
<g><path style="opacity:1" fill="#81672e" d="M 39.5,32.5 C 41.0443,32.7031 42.3777,33.3698 43.5,34.5C 44.1067,34.3764 44.44,34.0431 44.5,33.5C 45.1667,33.5 45.8333,33.5 46.5,33.5C 47.9187,34.4511 49.5853,34.7845 51.5,34.5C 52.5,34.5 53.5,34.5 54.5,34.5C 54.5,34.8333 54.5,35.1667 54.5,35.5C 51.1667,35.5 47.8333,35.5 44.5,35.5C 42.0672,35.7271 40.4006,34.7271 39.5,32.5 Z"/></g>
<g><path style="opacity:1" fill="#52472d" d="M 54.5,30.5 C 54.8333,30.5 55.1667,30.5 55.5,30.5C 55.8333,30.5 56.1667,30.5 56.5,30.5C 56.5,31.1667 56.5,31.8333 56.5,32.5C 57.1667,33.1667 57.8333,33.8333 58.5,34.5C 57.1667,34.8333 55.8333,35.1667 54.5,35.5C 54.5,35.1667 54.5,34.8333 54.5,34.5C 54.5,33.1667 54.5,31.8333 54.5,30.5 Z"/></g>
<g><path style="opacity:1" fill="#9c662b" d="M 72.5,28.5 C 74.644,30.1331 76.3107,32.1331 77.5,34.5C 77.5,35.1667 77.5,35.8333 77.5,36.5C 78.1667,37.5 78.8333,38.5 79.5,39.5C 79.5,40.1667 79.5,40.8333 79.5,41.5C 78.5116,40.205 77.5116,38.8717 76.5,37.5C 75.3576,34.7406 74.0243,32.0739 72.5,29.5C 72.5,29.1667 72.5,28.8333 72.5,28.5 Z"/></g>
<g><path style="opacity:1" fill="#f5a929" d="M 77.5,33.5 C 79.4352,34.1495 81.4352,34.4828 83.5,34.5C 83.5,34.8333 83.5,35.1667 83.5,35.5C 81.901,35.2322 80.5676,35.5655 79.5,36.5C 78.8333,36.5 78.1667,36.5 77.5,36.5C 77.5,35.8333 77.5,35.1667 77.5,34.5C 77.5,34.1667 77.5,33.8333 77.5,33.5 Z"/></g>
<g><path style="opacity:1" fill="#c88c21" d="M 83.5,31.5 C 83.8333,31.5 84.1667,31.5 84.5,31.5C 84.894,33.7099 86.2273,35.0432 88.5,35.5C 88.5,36.1667 88.1667,36.5 87.5,36.5C 86.2921,35.7659 84.9587,35.4326 83.5,35.5C 83.5,35.1667 83.5,34.8333 83.5,34.5C 83.5,34.1667 83.5,33.8333 83.5,33.5C 83.5,32.8333 83.5,32.1667 83.5,31.5 Z"/></g>
<g><path style="opacity:1" fill="#f5b718" d="M 31.5,30.5 C 32.1667,30.5 32.5,30.8333 32.5,31.5C 32.8333,32.5 33.5,33.1667 34.5,33.5C 34.5,34.1667 34.5,34.8333 34.5,35.5C 33.8333,35.5 33.5,35.8333 33.5,36.5C 33.1667,36.5 32.8333,36.5 32.5,36.5C 32.3738,35.561 32.0405,34.561 31.5,33.5C 31.5,32.8333 31.5,32.1667 31.5,31.5C 31.5,31.1667 31.5,30.8333 31.5,30.5 Z"/></g>
<g><path style="opacity:1" fill="#8a7946" d="M 44.5,35.5 C 47.8333,35.5 51.1667,35.5 54.5,35.5C 54.5,36.1667 54.8333,36.5 55.5,36.5C 55.7947,38.7354 55.4614,40.7354 54.5,42.5C 54.7148,40.8212 54.0481,39.8212 52.5,39.5C 52.5,39.1667 52.5,38.8333 52.5,38.5C 50.3589,37.7001 47.6922,36.7001 44.5,35.5 Z"/></g>
<g><path style="opacity:1" fill="#888a81" d="M 58.5,34.5 C 58.8333,34.5 59.1667,34.5 59.5,34.5C 58.3398,36.2027 59.0065,36.8693 61.5,36.5C 61.1583,37.3382 60.4916,37.6716 59.5,37.5C 58.8333,37.5 58.1667,37.5 57.5,37.5C 57.1583,36.6618 56.4916,36.3284 55.5,36.5C 54.8333,36.5 54.5,36.1667 54.5,35.5C 55.8333,35.1667 57.1667,34.8333 58.5,34.5 Z"/></g>
<g><path style="opacity:0.8" fill="#404041" d="M 60.5,30.5 C 61.5,30.5 62.5,30.5 63.5,30.5C 63.7475,32.8583 63.0808,34.8583 61.5,36.5C 59.0065,36.8693 58.3398,36.2027 59.5,34.5C 63.0684,33.9383 63.4017,32.605 60.5,30.5 Z"/></g>
<g><path style="opacity:0.659" fill="#9b9a96" d="M 69.5,32.5 C 69.5,32.8333 69.5,33.1667 69.5,33.5C 68.2801,35.0496 68.2801,36.7163 69.5,38.5C 69.1667,38.5 68.8333,38.5 68.5,38.5C 67.3054,38.1344 66.6387,37.301 66.5,36C 66.7074,34.0503 67.7074,32.8836 69.5,32.5 Z"/></g>
<g><path style="opacity:1" fill="#49240d" d="M 71.5,29.5 C 71.8333,29.5 72.1667,29.5 72.5,29.5C 74.0243,32.0739 75.3576,34.7406 76.5,37.5C 75.8333,37.1667 75.1667,36.8333 74.5,36.5C 74.5,35.8333 74.1667,35.5 73.5,35.5C 73.2964,33.3146 72.6298,31.3146 71.5,29.5 Z"/></g>
<g><path style="opacity:0.925" fill="#70562b" d="M 88.5,33.5 C 88.8333,33.5 89.1667,33.5 89.5,33.5C 90.1667,33.5 90.8333,33.5 91.5,33.5C 91.5,34.8333 91.5,36.1667 91.5,37.5C 91.6716,38.4916 91.3382,39.1583 90.5,39.5C 90.5,39.1667 90.5,38.8333 90.5,38.5C 90.4431,37.391 90.1098,36.391 89.5,35.5C 89.1667,34.8333 88.8333,34.1667 88.5,33.5 Z"/></g>
<g><path style="opacity:1" fill="#ecc41f" d="M 27.5,35.5 C 28.2907,37.3093 28.2907,39.3093 27.5,41.5C 27.1667,41.5 26.8333,41.5 26.5,41.5C 26.2053,39.2646 26.5386,37.2646 27.5,35.5 Z"/></g>
<g><path style="opacity:1" fill="#e5be1b" d="M 34.5,33.5 C 35.391,34.1098 36.391,34.4431 37.5,34.5C 37.8333,34.5 38.1667,34.5 38.5,34.5C 39.8333,35.1667 40.8333,36.1667 41.5,37.5C 39.8333,37.5 38.1667,37.5 36.5,37.5C 35.8333,36.8333 35.1667,36.1667 34.5,35.5C 34.5,34.8333 34.5,34.1667 34.5,33.5 Z"/></g>
<g><path style="opacity:0.133" fill="#e9e4d7" d="M 19.5,31.5 C 19.1872,35.0419 19.5206,38.3752 20.5,41.5C 20.3838,44.9103 22.0504,46.2436 25.5,45.5C 25.9227,47.7812 25.256,49.4479 23.5,50.5C 24.2341,49.2921 24.5674,47.9587 24.5,46.5C 21.7615,47.0352 19.9282,46.0352 19,43.5C 18.1881,39.3112 18.3547,35.3112 19.5,31.5 Z"/></g>
<g><path style="opacity:1" fill="#f7c40f" d="M 27.5,33.5 C 28.9613,34.6857 30.2946,34.6857 31.5,33.5C 32.0405,34.561 32.3738,35.561 32.5,36.5C 31.3995,37.6049 30.7329,38.9382 30.5,40.5C 29.791,41.404 28.791,41.7373 27.5,41.5C 28.2907,39.3093 28.2907,37.3093 27.5,35.5C 27.5,34.8333 27.5,34.1667 27.5,33.5 Z"/></g>
<g><path style="opacity:0.89" fill="#3f3e3a" d="M 69.5,33.5 C 70.1834,35.1765 71.5168,35.8432 73.5,35.5C 73.5,36.5 73.5,37.5 73.5,38.5C 72.1667,38.5 70.8333,38.5 69.5,38.5C 68.2801,36.7163 68.2801,35.0496 69.5,33.5 Z"/></g>
<g><path style="opacity:1" fill="#d37d05" d="M 83.5,35.5 C 84.9587,35.4326 86.2921,35.7659 87.5,36.5C 86.5,37.5 85.5,38.5 84.5,39.5C 82.326,39.2503 80.6594,38.2503 79.5,36.5C 80.5676,35.5655 81.901,35.2322 83.5,35.5 Z"/></g>
<g><path style="opacity:1" fill="#fcbd0e" d="M 32.5,36.5 C 32.8333,36.5 33.1667,36.5 33.5,36.5C 35.1094,37.6654 35.4427,38.9988 34.5,40.5C 33.1667,40.5 31.8333,40.5 30.5,40.5C 30.7329,38.9382 31.3995,37.6049 32.5,36.5 Z"/></g>
<g><path style="opacity:1" fill="#fcc104" d="M 33.5,36.5 C 33.5,35.8333 33.8333,35.5 34.5,35.5C 35.1667,36.1667 35.8333,36.8333 36.5,37.5C 38.5061,38.4851 40.1727,39.8184 41.5,41.5C 39.0504,41.702 36.717,41.3686 34.5,40.5C 35.4427,38.9988 35.1094,37.6654 33.5,36.5 Z"/></g>
<g><path style="opacity:1" fill="#b89e2f" d="M 41.5,37.5 C 45.1352,38.1143 48.8019,38.4476 52.5,38.5C 52.5,38.8333 52.5,39.1667 52.5,39.5C 51.1667,39.5 49.8333,39.5 48.5,39.5C 46.8333,39.5 45.1667,39.5 43.5,39.5C 42.8333,38.8333 42.1667,38.1667 41.5,37.5 Z"/></g>
<g><path style="opacity:1" fill="#ce8122" d="M 77.5,36.5 C 78.1667,36.5 78.8333,36.5 79.5,36.5C 80.6594,38.2503 82.326,39.2503 84.5,39.5C 84.5,39.8333 84.5,40.1667 84.5,40.5C 82.7085,40.634 81.0418,40.3007 79.5,39.5C 78.8333,38.5 78.1667,37.5 77.5,36.5 Z"/></g>
<g><path style="opacity:0.349" fill="#b3ae9b" d="M 91.5,33.5 C 93.385,35.7954 93.885,38.462 93,41.5C 92.3292,42.2524 91.4959,42.5858 90.5,42.5C 91.355,41.4693 92.0217,40.3026 92.5,39C 92.4301,38.2352 92.0967,37.7352 91.5,37.5C 91.5,36.1667 91.5,34.8333 91.5,33.5 Z"/></g>
<g><path style="opacity:0.937" fill="#39342b" d="M 73.5,35.5 C 74.1667,35.5 74.5,35.8333 74.5,36.5C 75.1667,38.5 75.8333,40.5 76.5,42.5C 76.7148,44.1788 76.0481,45.1788 74.5,45.5C 73.4715,44.2126 73.8048,43.0459 75.5,42C 75.1639,40.9701 74.4972,40.4701 73.5,40.5C 73.5,39.8333 73.5,39.1667 73.5,38.5C 73.5,37.5 73.5,36.5 73.5,35.5 Z"/></g>
<g><path style="opacity:1" fill="#edaa44" d="M 88.5,35.5 C 88.8333,35.5 89.1667,35.5 89.5,35.5C 90.1098,36.391 90.4431,37.391 90.5,38.5C 88.6854,39.6298 86.6854,40.2964 84.5,40.5C 84.5,40.1667 84.5,39.8333 84.5,39.5C 85.5,38.5 86.5,37.5 87.5,36.5C 88.1667,36.5 88.5,36.1667 88.5,35.5 Z"/></g>
<g><path style="opacity:1" fill="#f4be1e" d="M 30.5,40.5 C 31.8333,40.5 33.1667,40.5 34.5,40.5C 36.717,41.3686 39.0504,41.702 41.5,41.5C 42.1667,41.5 42.8333,41.5 43.5,41.5C 40.5729,42.5819 34.9062,42.9153 26.5,42.5C 26.5,42.1667 26.5,41.8333 26.5,41.5C 26.8333,41.5 27.1667,41.5 27.5,41.5C 28.791,41.7373 29.791,41.404 30.5,40.5 Z"/></g>
<g><path style="opacity:1" fill="#f7c318" d="M 36.5,37.5 C 38.1667,37.5 39.8333,37.5 41.5,37.5C 42.1667,38.1667 42.8333,38.8333 43.5,39.5C 43.5,40.1667 43.5,40.8333 43.5,41.5C 42.8333,41.5 42.1667,41.5 41.5,41.5C 40.1727,39.8184 38.5061,38.4851 36.5,37.5 Z"/></g>
<g><path style="opacity:1" fill="#edbf29" d="M 43.5,39.5 C 45.1667,39.5 46.8333,39.5 48.5,39.5C 49.7175,40.1614 51.0508,40.8281 52.5,41.5C 52.2907,42.086 51.9574,42.586 51.5,43C 43.1733,43.4997 34.84,43.6664 26.5,43.5C 26.5,43.1667 26.5,42.8333 26.5,42.5C 34.9062,42.9153 40.5729,42.5819 43.5,41.5C 43.5,40.8333 43.5,40.1667 43.5,39.5 Z"/></g>
<g><path style="opacity:1" fill="#c59249" d="M 90.5,38.5 C 90.5,38.8333 90.5,39.1667 90.5,39.5C 88.4632,40.8465 86.4632,42.1798 84.5,43.5C 82.7085,43.634 81.0418,43.3007 79.5,42.5C 79.5,42.1667 79.5,41.8333 79.5,41.5C 79.5,40.8333 79.5,40.1667 79.5,39.5C 81.0418,40.3007 82.7085,40.634 84.5,40.5C 86.6854,40.2964 88.6854,39.6298 90.5,38.5 Z"/></g>
<g><path style="opacity:0.98" fill="#6d5338" d="M 91.5,37.5 C 92.0967,37.7352 92.4301,38.2352 92.5,39C 92.0217,40.3026 91.355,41.4693 90.5,42.5C 89.3406,44.2503 87.674,45.2503 85.5,45.5C 87.0311,44.0755 86.6977,43.4088 84.5,43.5C 86.4632,42.1798 88.4632,40.8465 90.5,39.5C 91.3382,39.1583 91.6716,38.4916 91.5,37.5 Z"/></g>
<g><path style="opacity:0.094" fill="#d7d0c2" d="M 57.5,37.5 C 58.1667,37.5 58.8333,37.5 59.5,37.5C 58.8575,40.1982 58.0242,42.8649 57,45.5C 56.3292,46.2524 55.4959,46.5858 54.5,46.5C 53.209,46.2627 52.209,46.596 51.5,47.5C 50.8333,47.5 50.5,47.1667 50.5,46.5C 50.5,46.1667 50.5,45.8333 50.5,45.5C 51.5,45.5 52.5,45.5 53.5,45.5C 54.4959,45.5858 55.3292,45.2524 56,44.5C 56.1862,41.9644 56.6862,39.631 57.5,37.5 Z"/></g>
<g><path style="opacity:1" fill="#301b0d" d="M 74.5,36.5 C 75.1667,36.8333 75.8333,37.1667 76.5,37.5C 77.5116,38.8717 78.5116,40.205 79.5,41.5C 79.5,41.8333 79.5,42.1667 79.5,42.5C 79.6716,43.4916 79.3382,44.1583 78.5,44.5C 78.5,43.1667 77.8333,42.5 76.5,42.5C 75.8333,40.5 75.1667,38.5 74.5,36.5 Z"/></g>
<g><path style="opacity:0.898" fill="#514624" d="M 20.5,41.5 C 20.8333,41.5 21.1667,41.5 21.5,41.5C 22.7791,42.968 24.4458,43.6347 26.5,43.5C 26.5,43.8333 26.5,44.1667 26.5,44.5C 26.5,44.8333 26.5,45.1667 26.5,45.5C 26.1667,45.5 25.8333,45.5 25.5,45.5C 22.0504,46.2436 20.3838,44.9103 20.5,41.5 Z"/></g>
<g><path style="opacity:1" fill="#c7a23c" d="M 48.5,39.5 C 49.8333,39.5 51.1667,39.5 52.5,39.5C 54.0481,39.8212 54.7148,40.8212 54.5,42.5C 54.6716,43.4916 54.3382,44.1583 53.5,44.5C 44.5,44.5 35.5,44.5 26.5,44.5C 26.5,44.1667 26.5,43.8333 26.5,43.5C 34.84,43.6664 43.1733,43.4997 51.5,43C 51.9574,42.586 52.2907,42.086 52.5,41.5C 51.0508,40.8281 49.7175,40.1614 48.5,39.5 Z"/></g>
<g><path style="opacity:0.886" fill="#56451e" d="M 55.5,36.5 C 56.4916,36.3284 57.1583,36.6618 57.5,37.5C 56.6862,39.631 56.1862,41.9644 56,44.5C 55.3292,45.2524 54.4959,45.5858 53.5,45.5C 53.5,45.1667 53.5,44.8333 53.5,44.5C 54.3382,44.1583 54.6716,43.4916 54.5,42.5C 55.4614,40.7354 55.7947,38.7354 55.5,36.5 Z"/></g>
<g><path style="opacity:0.42" fill="#b9b7b9" d="M 68.5,38.5 C 68.8333,38.5 69.1667,38.5 69.5,38.5C 70.8333,38.5 72.1667,38.5 73.5,38.5C 73.5,39.1667 73.5,39.8333 73.5,40.5C 72.8333,40.5 72.5,40.8333 72.5,41.5C 70.5,43.1667 68.5,44.8333 66.5,46.5C 66.5,46.1667 66.5,45.8333 66.5,45.5C 67.9599,43.5372 69.6266,41.7038 71.5,40C 70.2625,39.7679 69.2625,39.2679 68.5,38.5 Z"/></g>
<g><path style="opacity:0.875" fill="#463519" d="M 79.5,42.5 C 81.0418,43.3007 82.7085,43.634 84.5,43.5C 86.6977,43.4088 87.0311,44.0755 85.5,45.5C 83.1667,45.5 80.8333,45.5 78.5,45.5C 78.5,45.1667 78.5,44.8333 78.5,44.5C 79.3382,44.1583 79.6716,43.4916 79.5,42.5 Z"/></g>
<g><path style="opacity:1" fill="#49434c" d="M 72.5,41.5 C 72.4431,42.609 72.1098,43.609 71.5,44.5C 69.8333,45.8333 68.1667,47.1667 66.5,48.5C 66.5,47.8333 66.1667,47.5 65.5,47.5C 65.5,46.8333 65.8333,46.5 66.5,46.5C 68.5,44.8333 70.5,43.1667 72.5,41.5 Z"/></g>
<g><path style="opacity:1" fill="#565a55" d="M 73.5,40.5 C 74.4972,40.4701 75.1639,40.9701 75.5,42C 73.8048,43.0459 73.4715,44.2126 74.5,45.5C 74.5,46.1667 74.1667,46.5 73.5,46.5C 73.1583,45.6618 72.4916,45.3284 71.5,45.5C 71.5,45.1667 71.5,44.8333 71.5,44.5C 72.1098,43.609 72.4431,42.609 72.5,41.5C 72.5,40.8333 72.8333,40.5 73.5,40.5 Z"/></g>
<g><path style="opacity:0.337" fill="#a49f93" d="M 78.5,45.5 C 80.8333,45.5 83.1667,45.5 85.5,45.5C 84.0484,46.3019 82.3817,46.8019 80.5,47C 79.6006,48.6516 78.6006,50.1516 77.5,51.5C 77.5,51.1667 77.5,50.8333 77.5,50.5C 77.5,49.8333 77.5,49.1667 77.5,48.5C 78.404,47.791 78.7373,46.791 78.5,45.5 Z"/></g>
<g><path style="opacity:1" fill="#261f12" d="M 37.5,46.5 C 41.6344,45.5151 45.9677,45.1818 50.5,45.5C 50.5,45.8333 50.5,46.1667 50.5,46.5C 48.2646,46.2053 46.2646,46.5386 44.5,47.5C 46.193,48.8533 47.5264,50.52 48.5,52.5C 48.1667,52.5 47.8333,52.5 47.5,52.5C 45.0948,51.2318 42.4282,50.5651 39.5,50.5C 41.0024,48.1707 40.3357,46.8373 37.5,46.5 Z"/></g>
<g><path style="opacity:1" fill="#363132" d="M 44.5,47.5 C 46.2646,46.5386 48.2646,46.2053 50.5,46.5C 50.5,47.1667 50.8333,47.5 51.5,47.5C 51.6716,48.4916 51.3382,49.1583 50.5,49.5C 48.8863,47.9254 46.8863,47.2587 44.5,47.5 Z"/></g>
<g><path style="opacity:1" fill="#232319" d="M 76.5,42.5 C 77.8333,42.5 78.5,43.1667 78.5,44.5C 78.5,44.8333 78.5,45.1667 78.5,45.5C 78.7373,46.791 78.404,47.791 77.5,48.5C 76.2921,47.7659 74.9587,47.4326 73.5,47.5C 73.5,47.1667 73.5,46.8333 73.5,46.5C 74.1667,46.5 74.5,46.1667 74.5,45.5C 76.0481,45.1788 76.7148,44.1788 76.5,42.5 Z"/></g>
<g><path style="opacity:1" fill="#2c2f27" d="M 26.5,45.5 C 29.5,45.1667 30.8333,46.5 30.5,49.5C 29.1667,49.5 27.8333,49.5 26.5,49.5C 26.5,48.1667 26.5,46.8333 26.5,45.5 Z"/></g>
<g><path style="opacity:1" fill="#525155" d="M 71.5,45.5 C 72.4916,45.3284 73.1583,45.6618 73.5,46.5C 73.5,46.8333 73.5,47.1667 73.5,47.5C 72.1667,48.1667 71.1667,49.1667 70.5,50.5C 69.8333,50.5 69.5,50.8333 69.5,51.5C 68.8333,51.8333 68.1667,52.1667 67.5,52.5C 67.5569,51.391 67.8902,50.391 68.5,49.5C 69.5,48.1667 70.5,46.8333 71.5,45.5 Z"/></g>
<g><path style="opacity:1" fill="#2e1f0d" d="M 26.5,45.5 C 26.5,45.1667 26.5,44.8333 26.5,44.5C 35.5,44.5 44.5,44.5 53.5,44.5C 53.5,44.8333 53.5,45.1667 53.5,45.5C 52.5,45.5 51.5,45.5 50.5,45.5C 45.9677,45.1818 41.6344,45.5151 37.5,46.5C 35.4727,46.3379 33.4727,46.5045 31.5,47C 32.8228,47.8159 33.4894,48.9826 33.5,50.5C 31.1667,50.5 28.8333,50.5 26.5,50.5C 26.5,50.1667 26.5,49.8333 26.5,49.5C 27.8333,49.5 29.1667,49.5 30.5,49.5C 30.8333,46.5 29.5,45.1667 26.5,45.5 Z"/></g>
<g><path style="opacity:1" fill="#3b3834" d="M 65.5,47.5 C 66.1667,47.5 66.5,47.8333 66.5,48.5C 64.8333,49.5 63.5,50.8333 62.5,52.5C 60.7162,52.8925 59.0495,53.5592 57.5,54.5C 57.5,54.1667 57.5,53.8333 57.5,53.5C 57.5,53.1667 57.5,52.8333 57.5,52.5C 60.1492,50.86 62.8159,49.1933 65.5,47.5 Z"/></g>
<g><path style="opacity:1" fill="#201f22" d="M 37.5,46.5 C 40.3357,46.8373 41.0024,48.1707 39.5,50.5C 37.5,50.5 35.5,50.5 33.5,50.5C 33.4894,48.9826 32.8228,47.8159 31.5,47C 33.4727,46.5045 35.4727,46.3379 37.5,46.5 Z"/></g>
<g><path style="opacity:0.406" fill="#e9e0e0" d="M 54.5,46.5 C 53.259,49.2959 54.259,50.9626 57.5,51.5C 57.5,51.8333 57.5,52.1667 57.5,52.5C 57.5,52.8333 57.5,53.1667 57.5,53.5C 55.4862,53.6085 53.8195,52.9418 52.5,51.5C 51.1667,51.5 50.5,50.8333 50.5,49.5C 51.3382,49.1583 51.6716,48.4916 51.5,47.5C 52.209,46.596 53.209,46.2627 54.5,46.5 Z"/></g>
<g><path style="opacity:1" fill="#1e1e21" d="M 73.5,47.5 C 74.9587,47.4326 76.2921,47.7659 77.5,48.5C 77.5,49.1667 77.5,49.8333 77.5,50.5C 76.209,50.2627 75.209,50.596 74.5,51.5C 73.2921,50.7659 71.9587,50.4326 70.5,50.5C 71.1667,49.1667 72.1667,48.1667 73.5,47.5 Z"/></g>
<g><path style="opacity:0.165" fill="#d4ccbe" d="M 25.5,45.5 C 25.8333,45.5 26.1667,45.5 26.5,45.5C 26.5,46.8333 26.5,48.1667 26.5,49.5C 26.5,49.8333 26.5,50.1667 26.5,50.5C 25.791,51.404 24.791,51.7373 23.5,51.5C 21.086,52.9108 19.4194,54.9108 18.5,57.5C 18.1667,57.5 17.8333,57.5 17.5,57.5C 18.0536,53.9452 20.0536,51.6118 23.5,50.5C 25.256,49.4479 25.9227,47.7812 25.5,45.5 Z"/></g>
<g><path style="opacity:1" fill="#3d2404" d="M 26.5,50.5 C 28.8333,50.5 31.1667,50.5 33.5,50.5C 35.5,50.5 37.5,50.5 39.5,50.5C 42.4282,50.5651 45.0948,51.2318 47.5,52.5C 47.1667,52.5 46.8333,52.5 46.5,52.5C 40.5,52.5 34.5,52.5 28.5,52.5C 27.1667,52.5 25.8333,52.5 24.5,52.5C 23.8333,52.5 23.5,52.1667 23.5,51.5C 24.791,51.7373 25.791,51.404 26.5,50.5 Z"/></g>
<g><path style="opacity:1" fill="#202513" d="M 44.5,47.5 C 46.8863,47.2587 48.8863,47.9254 50.5,49.5C 50.5,50.8333 51.1667,51.5 52.5,51.5C 52.5,52.1667 52.1667,52.5 51.5,52.5C 50.5,52.5 49.5,52.5 48.5,52.5C 47.5264,50.52 46.193,48.8533 44.5,47.5 Z"/></g>
<g><path style="opacity:1" fill="#232227" d="M 70.5,50.5 C 71.9587,50.4326 73.2921,50.7659 74.5,51.5C 73.8106,52.7736 72.9772,52.7736 72,51.5C 70.4542,52.5029 70.2875,53.5029 71.5,54.5C 72.1098,55.391 72.4431,56.391 72.5,57.5C 71.8333,57.5 71.1667,57.5 70.5,57.5C 69.6586,55.6208 69.3253,53.6208 69.5,51.5C 69.5,50.8333 69.8333,50.5 70.5,50.5 Z"/></g>
<g><path style="opacity:0.976" fill="#5c5c60" d="M 74.5,51.5 C 75.209,50.596 76.209,50.2627 77.5,50.5C 77.5,50.8333 77.5,51.1667 77.5,51.5C 76.5806,54.0892 74.914,56.0892 72.5,57.5C 72.4431,56.391 72.1098,55.391 71.5,54.5C 72.2312,54.0582 73.2312,53.8915 74.5,54C 75.7736,53.0228 75.7736,52.1894 74.5,51.5 Z"/></g>
<g><path style="opacity:0.165" fill="#e0ded6" d="M 66.5,45.5 C 66.5,45.8333 66.5,46.1667 66.5,46.5C 65.8333,46.5 65.5,46.8333 65.5,47.5C 62.8159,49.1933 60.1492,50.86 57.5,52.5C 57.5,52.1667 57.5,51.8333 57.5,51.5C 60.3197,49.2549 63.3197,47.2549 66.5,45.5 Z"/></g>
<g><path style="opacity:1" fill="#8f8d8d" d="M 71.5,44.5 C 71.5,44.8333 71.5,45.1667 71.5,45.5C 70.5,46.8333 69.5,48.1667 68.5,49.5C 66.5,50.5 64.5,51.5 62.5,52.5C 63.5,50.8333 64.8333,49.5 66.5,48.5C 68.1667,47.1667 69.8333,45.8333 71.5,44.5 Z"/></g>
<g><path style="opacity:1" fill="#494d4a" d="M 68.5,49.5 C 67.8902,50.391 67.5569,51.391 67.5,52.5C 67.5,53.1667 67.1667,53.5 66.5,53.5C 64.816,54.5272 63.1494,55.5272 61.5,56.5C 61.5,55.8333 61.5,55.1667 61.5,54.5C 61.8333,53.8333 62.1667,53.1667 62.5,52.5C 64.5,51.5 66.5,50.5 68.5,49.5 Z"/></g>
<g><path style="opacity:1" fill="#caa33d" d="M 28.5,53.5 C 28.5,53.1667 28.5,52.8333 28.5,52.5C 34.5,52.5 40.5,52.5 46.5,52.5C 46.5,53.1667 46.8333,53.5 47.5,53.5C 47.5,53.8333 47.5,54.1667 47.5,54.5C 45.8333,54.5 44.1667,54.5 42.5,54.5C 39.0381,53.5184 35.3714,53.185 31.5,53.5C 30.5,53.5 29.5,53.5 28.5,53.5 Z"/></g>
<g><path style="opacity:0.843" fill="#1b1b1f" d="M 74.5,51.5 C 75.7736,52.1894 75.7736,53.0228 74.5,54C 73.2312,53.8915 72.2312,54.0582 71.5,54.5C 70.2875,53.5029 70.4542,52.5029 72,51.5C 72.9772,52.7736 73.8106,52.7736 74.5,51.5 Z"/></g>
<g><path style="opacity:1" fill="#e4ba47" d="M 28.5,53.5 C 29.5,53.5 30.5,53.5 31.5,53.5C 31.5,54.5 31.5,55.5 31.5,56.5C 31.1667,56.5 30.8333,56.5 30.5,56.5C 29.609,55.8902 28.609,55.5569 27.5,55.5C 27.3284,54.5084 27.6618,53.8417 28.5,53.5 Z"/></g>
<g><path style="opacity:1" fill="#f3c139" d="M 31.5,53.5 C 35.3714,53.185 39.0381,53.5184 42.5,54.5C 37.6968,53.8868 35.3635,54.2201 35.5,55.5C 35.5,56.5 35.5,57.5 35.5,58.5C 33.9382,58.2671 32.6049,57.6005 31.5,56.5C 31.5,55.5 31.5,54.5 31.5,53.5 Z"/></g>
<g><path style="opacity:1" fill="#1c1a1a" d="M 69.5,51.5 C 69.3253,53.6208 69.6586,55.6208 70.5,57.5C 68.8212,57.2852 67.8212,57.9519 67.5,59.5C 66.448,59.6495 65.448,59.4828 64.5,59C 65.4378,57.9367 66.4378,56.7701 67.5,55.5C 67.1373,54.8165 66.8039,54.1499 66.5,53.5C 67.1667,53.5 67.5,53.1667 67.5,52.5C 68.1667,52.1667 68.8333,51.8333 69.5,51.5 Z"/></g>
<g><path style="opacity:1" fill="#62572f" d="M 23.5,51.5 C 23.5,52.1667 23.8333,52.5 24.5,52.5C 24.0472,53.4584 23.3805,54.2917 22.5,55C 22.7284,55.3988 23.0618,55.5654 23.5,55.5C 22.3646,57.2132 20.698,57.8799 18.5,57.5C 19.4194,54.9108 21.086,52.9108 23.5,51.5 Z"/></g>
<g><path style="opacity:1" fill="#c8a959" d="M 24.5,52.5 C 25.8333,52.5 27.1667,52.5 28.5,52.5C 28.5,52.8333 28.5,53.1667 28.5,53.5C 27.6618,53.8417 27.3284,54.5084 27.5,55.5C 27.1667,55.5 26.8333,55.5 26.5,55.5C 25.5,55.5 24.5,55.5 23.5,55.5C 23.0618,55.5654 22.7284,55.3988 22.5,55C 23.3805,54.2917 24.0472,53.4584 24.5,52.5 Z"/></g>
<g><path style="opacity:1" fill="#f1c02d" d="M 42.5,54.5 C 44.1667,54.5 45.8333,54.5 47.5,54.5C 48.1667,55.5 48.8333,56.5 49.5,57.5C 49.5,57.8333 49.5,58.1667 49.5,58.5C 48.2502,58.4226 47.4169,57.756 47,56.5C 45.6439,57.3802 44.1439,57.7135 42.5,57.5C 41.5326,56.1938 40.1993,55.5271 38.5,55.5C 37.5,55.5 36.5,55.5 35.5,55.5C 35.3635,54.2201 37.6968,53.8868 42.5,54.5 Z"/></g>
<g><path style="opacity:1" fill="#ccc288" d="M 46.5,52.5 C 46.8333,52.5 47.1667,52.5 47.5,52.5C 47.8333,52.5 48.1667,52.5 48.5,52.5C 49.5,52.5 50.5,52.5 51.5,52.5C 53.1392,53.4725 54.4726,54.8058 55.5,56.5C 54.8333,56.5 54.1667,56.5 53.5,56.5C 51.7844,55.0292 49.7844,54.0292 47.5,53.5C 46.8333,53.5 46.5,53.1667 46.5,52.5 Z"/></g>
<g><path style="opacity:1" fill="#493118" d="M 52.5,51.5 C 53.8195,52.9418 55.4862,53.6085 57.5,53.5C 57.5,53.8333 57.5,54.1667 57.5,54.5C 57.3284,55.4916 57.6618,56.1583 58.5,56.5C 59.038,58.1172 59.3713,59.7839 59.5,61.5C 58.8333,61.5 58.1667,61.5 57.5,61.5C 57.1075,59.7162 56.4408,58.0495 55.5,56.5C 54.4726,54.8058 53.1392,53.4725 51.5,52.5C 52.1667,52.5 52.5,52.1667 52.5,51.5 Z"/></g>
<g><path style="opacity:1" fill="#8a828a" d="M 62.5,52.5 C 62.1667,53.1667 61.8333,53.8333 61.5,54.5C 60.2905,54.9321 59.2905,55.5987 58.5,56.5C 57.6618,56.1583 57.3284,55.4916 57.5,54.5C 59.0495,53.5592 60.7162,52.8925 62.5,52.5 Z"/></g>
<g><path style="opacity:1" fill="#23251e" d="M 66.5,53.5 C 66.8039,54.1499 67.1373,54.8165 67.5,55.5C 66.4378,56.7701 65.4378,57.9367 64.5,59C 65.448,59.4828 66.448,59.6495 67.5,59.5C 67.1667,60.1667 66.8333,60.8333 66.5,61.5C 66.1667,61.5 65.8333,61.5 65.5,61.5C 64.0736,60.6588 62.7403,59.6588 61.5,58.5C 61.5,57.8333 61.5,57.1667 61.5,56.5C 63.1494,55.5272 64.816,54.5272 66.5,53.5 Z"/></g>
<g><path style="opacity:1" fill="#f9b91b" d="M 35.5,55.5 C 36.5,55.5 37.5,55.5 38.5,55.5C 38.1667,56.8333 37.8333,58.1667 37.5,59.5C 36.8333,59.5 36.1667,59.5 35.5,59.5C 35.5,59.1667 35.5,58.8333 35.5,58.5C 35.5,57.5 35.5,56.5 35.5,55.5 Z"/></g>
<g><path style="opacity:1" fill="#faf3a8" d="M 47.5,53.5 C 49.7844,54.0292 51.7844,55.0292 53.5,56.5C 53.5,56.8333 53.5,57.1667 53.5,57.5C 52.1667,57.5 51.5,58.1667 51.5,59.5C 51.1667,59.5 50.8333,59.5 50.5,59.5C 50.6716,58.5084 50.3382,57.8417 49.5,57.5C 48.8333,56.5 48.1667,55.5 47.5,54.5C 47.5,54.1667 47.5,53.8333 47.5,53.5 Z"/></g>
<g><path style="opacity:1" fill="#452803" d="M 26.5,55.5 C 26.8333,55.5 27.1667,55.5 27.5,55.5C 28.609,55.5569 29.609,55.8902 30.5,56.5C 31.1667,57.5 31.8333,58.5 32.5,59.5C 31.8333,59.5 31.1667,59.5 30.5,59.5C 29.791,58.596 28.791,58.2627 27.5,58.5C 26.8902,57.609 26.5569,56.609 26.5,55.5 Z"/></g>
<g><path style="opacity:1" fill="#352713" d="M 23.5,55.5 C 24.5,55.5 25.5,55.5 26.5,55.5C 26.5569,56.609 26.8902,57.609 27.5,58.5C 24.5,58.5 21.5,58.5 18.5,58.5C 18.5,58.1667 18.5,57.8333 18.5,57.5C 20.698,57.8799 22.3646,57.2132 23.5,55.5 Z"/></g>
<g><path style="opacity:1" fill="#f4c411" d="M 49.5,58.5 C 49.5,59.1667 49.5,59.8333 49.5,60.5C 47.9582,61.3007 46.2915,61.634 44.5,61.5C 44.6107,60.8826 44.944,60.3826 45.5,60C 43.4024,59.3224 41.4024,59.4891 39.5,60.5C 39.5,60.1667 39.5,59.8333 39.5,59.5C 40.5,58.8333 41.5,58.1667 42.5,57.5C 44.1439,57.7135 45.6439,57.3802 47,56.5C 47.4169,57.756 48.2502,58.4226 49.5,58.5 Z"/></g>
<g><path style="opacity:0.942" fill="#656365" d="M 70.5,57.5 C 71.1667,57.5 71.8333,57.5 72.5,57.5C 70.8525,59.3264 68.8525,60.6597 66.5,61.5C 66.8333,60.8333 67.1667,60.1667 67.5,59.5C 67.8212,57.9519 68.8212,57.2852 70.5,57.5 Z"/></g>
<g><path style="opacity:1" fill="#cea235" d="M 30.5,56.5 C 30.8333,56.5 31.1667,56.5 31.5,56.5C 32.6049,57.6005 33.9382,58.2671 35.5,58.5C 35.5,58.8333 35.5,59.1667 35.5,59.5C 35.5,60.1667 35.5,60.8333 35.5,61.5C 35.1667,61.5 34.8333,61.5 34.5,61.5C 34.5,60.8333 34.1667,60.5 33.5,60.5C 33.5,59.8333 33.1667,59.5 32.5,59.5C 31.8333,58.5 31.1667,57.5 30.5,56.5 Z"/></g>
<g><path style="opacity:1" fill="#fcc00f" d="M 38.5,55.5 C 40.1993,55.5271 41.5326,56.1938 42.5,57.5C 41.5,58.1667 40.5,58.8333 39.5,59.5C 38.8333,59.5 38.1667,59.5 37.5,59.5C 37.8333,58.1667 38.1667,56.8333 38.5,55.5 Z"/></g>
<g><path style="opacity:1" fill="#fefbb0" d="M 53.5,57.5 C 54.5375,58.9303 55.2041,60.597 55.5,62.5C 54.1667,61.5 52.8333,60.5 51.5,59.5C 51.5,58.1667 52.1667,57.5 53.5,57.5 Z"/></g>
<g><path style="opacity:1" fill="#322d39" d="M 18.5,59.5 C 20.1667,59.5 21.8333,59.5 23.5,59.5C 22.3065,60.2719 21.3065,61.2719 20.5,62.5C 20.1667,62.5 19.8333,62.5 19.5,62.5C 18.596,61.791 18.2627,60.791 18.5,59.5 Z"/></g>
<g><path style="opacity:1" fill="#eec50f" d="M 44.5,61.5 C 43.1667,61.5 41.8333,61.5 40.5,61.5C 39.8333,61.5 39.5,61.1667 39.5,60.5C 41.4024,59.4891 43.4024,59.3224 45.5,60C 44.944,60.3826 44.6107,60.8826 44.5,61.5 Z"/></g>
<g><path style="opacity:1" fill="#2d2139" d="M 61.5,54.5 C 61.5,55.1667 61.5,55.8333 61.5,56.5C 61.5,57.1667 61.5,57.8333 61.5,58.5C 61.7148,60.1788 61.0481,61.1788 59.5,61.5C 59.3713,59.7839 59.038,58.1172 58.5,56.5C 59.2905,55.5987 60.2905,54.9321 61.5,54.5 Z"/></g>
<g><path style="opacity:1" fill="#a29ba5" d="M 23.5,59.5 C 25.7354,59.2053 27.7354,59.5386 29.5,60.5C 27.3792,60.3253 25.3792,60.6586 23.5,61.5C 22.8333,61.8333 22.1667,62.1667 21.5,62.5C 21.1667,62.5 20.8333,62.5 20.5,62.5C 21.3065,61.2719 22.3065,60.2719 23.5,59.5 Z"/></g>
<g><path style="opacity:1" fill="#2e2622" d="M 18.5,59.5 C 18.5,59.1667 18.5,58.8333 18.5,58.5C 21.5,58.5 24.5,58.5 27.5,58.5C 28.791,58.2627 29.791,58.596 30.5,59.5C 30.8333,60.1667 31.1667,60.8333 31.5,61.5C 30.8333,61.5 30.1667,61.5 29.5,61.5C 29.5,61.1667 29.5,60.8333 29.5,60.5C 27.7354,59.5386 25.7354,59.2053 23.5,59.5C 21.8333,59.5 20.1667,59.5 18.5,59.5 Z"/></g>
<g><path style="opacity:1" fill="#f2be23" d="M 35.5,59.5 C 36.1667,59.5 36.8333,59.5 37.5,59.5C 38.1667,59.5 38.8333,59.5 39.5,59.5C 39.5,59.8333 39.5,60.1667 39.5,60.5C 39.5,61.1667 39.8333,61.5 40.5,61.5C 40.5,61.8333 40.5,62.1667 40.5,62.5C 38.7839,62.3713 37.1172,62.038 35.5,61.5C 35.5,60.8333 35.5,60.1667 35.5,59.5 Z"/></g>
<g><path style="opacity:1" fill="#f0bf2f" d="M 49.5,60.5 C 47.0122,62.3878 44.0122,63.0545 40.5,62.5C 40.5,62.1667 40.5,61.8333 40.5,61.5C 41.8333,61.5 43.1667,61.5 44.5,61.5C 46.2915,61.634 47.9582,61.3007 49.5,60.5 Z"/></g>
<g><path style="opacity:1" fill="#c8bb6a" d="M 53.5,57.5 C 53.5,57.1667 53.5,56.8333 53.5,56.5C 54.1667,56.5 54.8333,56.5 55.5,56.5C 56.4408,58.0495 57.1075,59.7162 57.5,61.5C 57.5,62.1667 57.5,62.8333 57.5,63.5C 56.8333,63.5 56.1667,63.5 55.5,63.5C 55.5,63.1667 55.5,62.8333 55.5,62.5C 55.2041,60.597 54.5375,58.9303 53.5,57.5 Z"/></g>
<g><path style="opacity:1" fill="#50432c" d="M 57.5,61.5 C 58.1667,61.5 58.8333,61.5 59.5,61.5C 59.8417,62.3382 60.5084,62.6716 61.5,62.5C 61.5,62.8333 61.5,63.1667 61.5,63.5C 60.1001,64.0998 59.1001,65.0998 58.5,66.5C 58.5,65.8333 58.1667,65.5 57.5,65.5C 57.5,64.8333 57.5,64.1667 57.5,63.5C 57.5,62.8333 57.5,62.1667 57.5,61.5 Z"/></g>
<g><path style="opacity:0.855" fill="#20211f" d="M 61.5,58.5 C 62.7403,59.6588 64.0736,60.6588 65.5,61.5C 64.1667,61.8333 62.8333,62.1667 61.5,62.5C 60.5084,62.6716 59.8417,62.3382 59.5,61.5C 61.0481,61.1788 61.7148,60.1788 61.5,58.5 Z"/></g>
<g><path style="opacity:1" fill="#252629" d="M 29.5,60.5 C 29.5,60.8333 29.5,61.1667 29.5,61.5C 27.6854,62.6298 25.6854,63.2964 23.5,63.5C 23.5,62.8333 23.5,62.1667 23.5,61.5C 25.3792,60.6586 27.3792,60.3253 29.5,60.5 Z"/></g>
<g><path style="opacity:1" fill="#e1b951" d="M 49.5,57.5 C 50.3382,57.8417 50.6716,58.5084 50.5,59.5C 50.5,60.8333 50.5,62.1667 50.5,63.5C 44.7291,64.1128 39.3958,63.4461 34.5,61.5C 34.8333,61.5 35.1667,61.5 35.5,61.5C 37.1172,62.038 38.7839,62.3713 40.5,62.5C 44.0122,63.0545 47.0122,62.3878 49.5,60.5C 49.5,59.8333 49.5,59.1667 49.5,58.5C 49.5,58.1667 49.5,57.8333 49.5,57.5 Z"/></g>
<g><path style="opacity:1" fill="#f2e4bc" d="M 50.5,59.5 C 50.8333,59.5 51.1667,59.5 51.5,59.5C 52.8333,60.5 54.1667,61.5 55.5,62.5C 55.5,62.8333 55.5,63.1667 55.5,63.5C 53.8333,63.5 52.1667,63.5 50.5,63.5C 50.5,62.1667 50.5,60.8333 50.5,59.5 Z"/></g>
<g><path style="opacity:0.102" fill="#d4d3d3" d="M 65.5,61.5 C 65.8333,61.5 66.1667,61.5 66.5,61.5C 65.2196,62.9313 63.5529,63.5979 61.5,63.5C 61.5,63.1667 61.5,62.8333 61.5,62.5C 62.8333,62.1667 64.1667,61.8333 65.5,61.5 Z"/></g>
<g><path style="opacity:1" fill="#605a5f" d="M 17.5,57.5 C 17.8333,57.5 18.1667,57.5 18.5,57.5C 18.5,57.8333 18.5,58.1667 18.5,58.5C 18.5,58.8333 18.5,59.1667 18.5,59.5C 18.2627,60.791 18.596,61.791 19.5,62.5C 18.8333,63.5 18.1667,64.5 17.5,65.5C 16.8333,65.5 16.5,65.1667 16.5,64.5C 17.3686,62.283 17.702,59.9496 17.5,57.5 Z"/></g>
<g><path style="opacity:1" fill="#4e5047" d="M 23.5,61.5 C 23.5,62.1667 23.5,62.8333 23.5,63.5C 22.8333,64.8333 22.1667,66.1667 21.5,67.5C 21.5,68.1667 21.1667,68.5 20.5,68.5C 19.8333,69.1667 19.1667,69.8333 18.5,70.5C 18.5,69.8333 18.1667,69.5 17.5,69.5C 17.5,69.1667 17.5,68.8333 17.5,68.5C 18.4411,66.2279 19.7745,64.2279 21.5,62.5C 22.1667,62.1667 22.8333,61.8333 23.5,61.5 Z"/></g>
<g><path style="opacity:1" fill="#19221b" d="M 29.5,61.5 C 30.1667,61.5 30.8333,61.5 31.5,61.5C 31.5,62.8333 31.5,64.1667 31.5,65.5C 30.8333,65.8333 30.1667,66.1667 29.5,66.5C 28.7261,65.8529 27.7261,65.5195 26.5,65.5C 24.9704,65.6399 23.9704,66.3065 23.5,67.5C 22.8333,67.5 22.1667,67.5 21.5,67.5C 22.1667,66.1667 22.8333,64.8333 23.5,63.5C 25.6854,63.2964 27.6854,62.6298 29.5,61.5 Z"/></g>
<g><path style="opacity:1" fill="#4e3905" d="M 33.5,60.5 C 34.1667,60.5 34.5,60.8333 34.5,61.5C 39.3958,63.4461 44.7291,64.1128 50.5,63.5C 50.5,63.8333 50.5,64.1667 50.5,64.5C 49.8333,64.5 49.1667,64.5 48.5,64.5C 45.5,64.5 42.5,64.5 39.5,64.5C 37.901,64.2322 36.5676,64.5655 35.5,65.5C 34.8333,65.5 34.1667,65.5 33.5,65.5C 33.5,63.8333 33.5,62.1667 33.5,60.5 Z"/></g>
<g><path style="opacity:1" fill="#4e4b35" d="M 50.5,64.5 C 50.5,64.1667 50.5,63.8333 50.5,63.5C 52.1667,63.5 53.8333,63.5 55.5,63.5C 56.1667,63.5 56.8333,63.5 57.5,63.5C 57.5,64.1667 57.5,64.8333 57.5,65.5C 55.8828,64.962 54.2161,64.6287 52.5,64.5C 51.8333,64.5 51.1667,64.5 50.5,64.5 Z"/></g>
<g><path style="opacity:0.145" fill="#d1cfd1" d="M 17.5,57.5 C 17.702,59.9496 17.3686,62.283 16.5,64.5C 15.0687,65.7804 14.4021,67.4471 14.5,69.5C 13.5206,72.6248 13.1872,75.9581 13.5,79.5C 12.3567,76.0242 12.1901,72.3575 13,68.5C 14.8809,64.854 16.3809,61.1874 17.5,57.5 Z"/></g>
<g><path style="opacity:1" fill="#a9a6a4" d="M 19.5,62.5 C 19.8333,62.5 20.1667,62.5 20.5,62.5C 20.8333,62.5 21.1667,62.5 21.5,62.5C 19.7745,64.2279 18.4411,66.2279 17.5,68.5C 17.1667,68.5 16.8333,68.5 16.5,68.5C 16.5569,67.391 16.8902,66.391 17.5,65.5C 18.1667,64.5 18.8333,63.5 19.5,62.5 Z"/></g>
<g><path style="opacity:1" fill="#2d2109" d="M 30.5,59.5 C 31.1667,59.5 31.8333,59.5 32.5,59.5C 33.1667,59.5 33.5,59.8333 33.5,60.5C 33.5,62.1667 33.5,63.8333 33.5,65.5C 32.8333,65.5 32.1667,65.5 31.5,65.5C 31.5,64.1667 31.5,62.8333 31.5,61.5C 31.1667,60.8333 30.8333,60.1667 30.5,59.5 Z"/></g>
<g><path style="opacity:0.91" fill="#4f4b4f" d="M 16.5,64.5 C 16.5,65.1667 16.8333,65.5 17.5,65.5C 16.8902,66.391 16.5569,67.391 16.5,68.5C 15.6618,68.8417 15.3284,69.5084 15.5,70.5C 14.8333,70.5 14.5,70.1667 14.5,69.5C 14.4021,67.4471 15.0687,65.7804 16.5,64.5 Z"/></g>
<g><path style="opacity:1" fill="#2e1f12" d="M 48.5,64.5 C 49.1667,64.5 49.8333,64.5 50.5,64.5C 51.1667,64.5 51.8333,64.5 52.5,64.5C 52.8333,65.8333 53.1667,67.1667 53.5,68.5C 52.5,68.5 51.5,68.5 50.5,68.5C 50.6107,67.8826 50.944,67.3826 51.5,67C 49.8807,66.7645 48.8807,65.9311 48.5,64.5 Z"/></g>
<g><path style="opacity:1" fill="#1c1f20" d="M 29.5,66.5 C 28.5,67.1667 27.5,67.8333 26.5,68.5C 25.791,67.596 24.791,67.2627 23.5,67.5C 23.9704,66.3065 24.9704,65.6399 26.5,65.5C 27.7261,65.5195 28.7261,65.8529 29.5,66.5 Z"/></g>
<g><path style="opacity:1" fill="#241d14" d="M 31.5,65.5 C 32.1667,65.5 32.8333,65.5 33.5,65.5C 34.1667,65.5 34.8333,65.5 35.5,65.5C 35.5,66.1667 35.5,66.8333 35.5,67.5C 33.4727,67.3379 31.4727,67.5045 29.5,68C 28.6159,69.7198 27.2825,70.8865 25.5,71.5C 25.5569,70.391 25.8902,69.391 26.5,68.5C 27.5,67.8333 28.5,67.1667 29.5,66.5C 30.1667,66.1667 30.8333,65.8333 31.5,65.5 Z"/></g>
<g><path style="opacity:1" fill="#2c2603" d="M 39.5,64.5 C 39.5,64.8333 39.5,65.1667 39.5,65.5C 35.551,65.6932 35.551,66.1932 39.5,67C 38.2068,67.49 36.8734,67.6567 35.5,67.5C 35.5,66.8333 35.5,66.1667 35.5,65.5C 36.5676,64.5655 37.901,64.2322 39.5,64.5 Z"/></g>
<g><path style="opacity:1" fill="#4a370a" d="M 39.5,65.5 C 39.5,65.1667 39.5,64.8333 39.5,64.5C 42.5,64.5 45.5,64.5 48.5,64.5C 48.8807,65.9311 49.8807,66.7645 51.5,67C 50.944,67.3826 50.6107,67.8826 50.5,68.5C 50.5,68.8333 50.5,69.1667 50.5,69.5C 49.5,69.5 48.5,69.5 47.5,69.5C 42.1667,69.5 36.8333,69.5 31.5,69.5C 36.6405,68.5119 41.9738,68.1786 47.5,68.5C 47.5,67.5 47.5,66.5 47.5,65.5C 44.8333,65.5 42.1667,65.5 39.5,65.5 Z"/></g>
<g><path style="opacity:1" fill="#2c2002" d="M 39.5,65.5 C 42.1667,65.5 44.8333,65.5 47.5,65.5C 47.5,66.5 47.5,67.5 47.5,68.5C 41.9738,68.1786 36.6405,68.5119 31.5,69.5C 29.5662,71.297 27.2329,72.297 24.5,72.5C 24.5,72.1667 24.5,71.8333 24.5,71.5C 24.8333,71.5 25.1667,71.5 25.5,71.5C 27.2825,70.8865 28.6159,69.7198 29.5,68C 31.4727,67.5045 33.4727,67.3379 35.5,67.5C 36.8734,67.6567 38.2068,67.49 39.5,67C 35.551,66.1932 35.551,65.6932 39.5,65.5 Z"/></g>
<g><path style="opacity:1" fill="#231f1a" d="M 52.5,64.5 C 54.2161,64.6287 55.8828,64.962 57.5,65.5C 58.1667,65.5 58.5,65.8333 58.5,66.5C 58.5,66.8333 58.5,67.1667 58.5,67.5C 56.7839,67.6287 55.1172,67.962 53.5,68.5C 53.1667,67.1667 52.8333,65.8333 52.5,64.5 Z"/></g>
<g><path style="opacity:0.118" fill="#e5e3e2" d="M 61.5,63.5 C 60.8698,65.7496 59.8698,67.7496 58.5,69.5C 58.5,68.8333 58.5,68.1667 58.5,67.5C 58.5,67.1667 58.5,66.8333 58.5,66.5C 59.1001,65.0998 60.1001,64.0998 61.5,63.5 Z"/></g>
<g><path style="opacity:1" fill="#51484b" d="M 58.5,67.5 C 58.5,68.1667 58.5,68.8333 58.5,69.5C 56.5,71.1667 54.5,72.8333 52.5,74.5C 52.1667,73.8333 51.8333,73.1667 51.5,72.5C 57.0325,70.1118 56.6992,69.1118 50.5,69.5C 50.5,69.1667 50.5,68.8333 50.5,68.5C 51.5,68.5 52.5,68.5 53.5,68.5C 55.1172,67.962 56.7839,67.6287 58.5,67.5 Z"/></g>
<g><path style="opacity:1" fill="#231c21" d="M 23.5,67.5 C 24.791,67.2627 25.791,67.596 26.5,68.5C 25.8902,69.391 25.5569,70.391 25.5,71.5C 25.1667,71.5 24.8333,71.5 24.5,71.5C 23.391,71.5569 22.391,71.8902 21.5,72.5C 22.1667,70.8333 22.8333,69.1667 23.5,67.5 Z"/></g>
<g><path style="opacity:1" fill="#e0b93f" d="M 31.5,69.5 C 36.8333,69.5 42.1667,69.5 47.5,69.5C 47.5,69.8333 47.5,70.1667 47.5,70.5C 44.8333,70.5 42.1667,70.5 39.5,70.5C 37.5,70.5 35.5,70.5 33.5,70.5C 33.5,71.5 33.5,72.5 33.5,73.5C 35.5,73.5 37.5,73.5 39.5,73.5C 42.1667,73.5 44.8333,73.5 47.5,73.5C 47.5,73.8333 47.5,74.1667 47.5,74.5C 46.5,74.5 45.5,74.5 44.5,74.5C 40.1667,74.5 35.8333,74.5 31.5,74.5C 31.5,72.8333 31.5,71.1667 31.5,69.5 Z"/></g>
<g><path style="opacity:1" fill="#e9dab6" d="M 50.5,69.5 C 56.6992,69.1118 57.0325,70.1118 51.5,72.5C 51.1667,72.5 50.8333,72.5 50.5,72.5C 50.5,71.5 50.5,70.5 50.5,69.5 Z"/></g>
<g><path style="opacity:1" fill="#89898e" d="M 16.5,68.5 C 16.8333,68.5 17.1667,68.5 17.5,68.5C 17.5,68.8333 17.5,69.1667 17.5,69.5C 16.7347,72.0961 16.4013,74.7628 16.5,77.5C 16.1667,77.5 15.8333,77.5 15.5,77.5C 15.5,77.1667 15.5,76.8333 15.5,76.5C 15.5,74.5 15.5,72.5 15.5,70.5C 15.3284,69.5084 15.6618,68.8417 16.5,68.5 Z"/></g>
<g><path style="opacity:1" fill="#505055" d="M 17.5,69.5 C 18.1667,69.5 18.5,69.8333 18.5,70.5C 18.5,72.8333 18.5,75.1667 18.5,77.5C 18.5,78.1667 18.5,78.8333 18.5,79.5C 17.8333,78.8333 17.1667,78.1667 16.5,77.5C 16.4013,74.7628 16.7347,72.0961 17.5,69.5 Z"/></g>
<g><path style="opacity:1" fill="#222223" d="M 21.5,67.5 C 22.1667,67.5 22.8333,67.5 23.5,67.5C 22.8333,69.1667 22.1667,70.8333 21.5,72.5C 21.5912,74.6977 20.9245,75.0311 19.5,73.5C 20.038,71.8828 20.3713,70.2161 20.5,68.5C 21.1667,68.5 21.5,68.1667 21.5,67.5 Z"/></g>
<g><path style="opacity:1" fill="#f3c121" d="M 39.5,70.5 C 41.631,71.3138 43.9644,71.8138 46.5,72C 43.9644,72.1862 41.631,72.6862 39.5,73.5C 37.5,73.5 35.5,73.5 33.5,73.5C 33.5,72.5 33.5,71.5 33.5,70.5C 35.5,70.5 37.5,70.5 39.5,70.5 Z"/></g>
<g><path style="opacity:1" fill="#d3bd57" d="M 47.5,69.5 C 48.5,69.5 49.5,69.5 50.5,69.5C 50.5,70.5 50.5,71.5 50.5,72.5C 49.609,73.1098 48.609,73.4431 47.5,73.5C 47.5,72.5 47.5,71.5 47.5,70.5C 47.5,70.1667 47.5,69.8333 47.5,69.5 Z"/></g>
<g><path style="opacity:1" fill="#b39f56" d="M 31.5,69.5 C 31.5,71.1667 31.5,72.8333 31.5,74.5C 29.7839,74.3713 28.1172,74.038 26.5,73.5C 25.5084,73.6716 24.8417,73.3382 24.5,72.5C 27.2329,72.297 29.5662,71.297 31.5,69.5 Z"/></g>
<g><path style="opacity:1" fill="#efbd2a" d="M 39.5,70.5 C 42.1667,70.5 44.8333,70.5 47.5,70.5C 47.5,71.5 47.5,72.5 47.5,73.5C 44.8333,73.5 42.1667,73.5 39.5,73.5C 41.631,72.6862 43.9644,72.1862 46.5,72C 43.9644,71.8138 41.631,71.3138 39.5,70.5 Z"/></g>
<g><path style="opacity:0.78" fill="#59595a" d="M 14.5,69.5 C 14.5,70.1667 14.8333,70.5 15.5,70.5C 15.5,72.5 15.5,74.5 15.5,76.5C 14.596,77.209 14.2627,78.209 14.5,79.5C 14.1667,79.5 13.8333,79.5 13.5,79.5C 13.1872,75.9581 13.5206,72.6248 14.5,69.5 Z"/></g>
<g><path style="opacity:1" fill="#343436" d="M 20.5,68.5 C 20.3713,70.2161 20.038,71.8828 19.5,73.5C 19.5,74.1667 19.5,74.8333 19.5,75.5C 19.6716,76.4916 19.3382,77.1583 18.5,77.5C 18.5,75.1667 18.5,72.8333 18.5,70.5C 19.1667,69.8333 19.8333,69.1667 20.5,68.5 Z"/></g>
<g><path style="opacity:1" fill="#231e1c" d="M 24.5,71.5 C 24.5,71.8333 24.5,72.1667 24.5,72.5C 24.8417,73.3382 25.5084,73.6716 26.5,73.5C 26.1667,74.1667 25.8333,74.8333 25.5,75.5C 24.5,75.5 23.5,75.5 22.5,75.5C 21.5,75.5 20.5,75.5 19.5,75.5C 19.5,74.8333 19.5,74.1667 19.5,73.5C 20.9245,75.0311 21.5912,74.6977 21.5,72.5C 22.391,71.8902 23.391,71.5569 24.5,71.5 Z"/></g>
<g><path style="opacity:1" fill="#6b582e" d="M 50.5,72.5 C 50.8333,72.5 51.1667,72.5 51.5,72.5C 51.8333,73.1667 52.1667,73.8333 52.5,74.5C 50.8583,76.0808 48.8583,76.7475 46.5,76.5C 46.8333,75.8333 47.1667,75.1667 47.5,74.5C 47.5,74.1667 47.5,73.8333 47.5,73.5C 48.609,73.4431 49.609,73.1098 50.5,72.5 Z"/></g>
<g><path style="opacity:1" fill="#372805" d="M 26.5,73.5 C 28.1172,74.038 29.7839,74.3713 31.5,74.5C 35.8333,74.5 40.1667,74.5 44.5,74.5C 43.1667,75.1667 41.8333,75.8333 40.5,76.5C 38.8333,76.5 37.1667,76.5 35.5,76.5C 33.1667,76.5 30.8333,76.5 28.5,76.5C 27.791,75.596 26.791,75.2627 25.5,75.5C 25.8333,74.8333 26.1667,74.1667 26.5,73.5 Z"/></g>
<g><path style="opacity:1" fill="#2f1d01" d="M 44.5,74.5 C 45.5,74.5 46.5,74.5 47.5,74.5C 47.1667,75.1667 46.8333,75.8333 46.5,76.5C 44.8333,76.5 43.1667,76.5 41.5,76.5C 41.1667,76.5 40.8333,76.5 40.5,76.5C 41.8333,75.8333 43.1667,75.1667 44.5,74.5 Z"/></g>
<g><path style="opacity:0.145" fill="#e2dce3" d="M 58.5,69.5 C 56.8777,72.4549 54.8777,75.1215 52.5,77.5C 52.5,76.5 52.5,75.5 52.5,74.5C 54.5,72.8333 56.5,71.1667 58.5,69.5 Z"/></g>
<g><path style="opacity:1" fill="#1e201c" d="M 19.5,75.5 C 20.5,75.5 21.5,75.5 22.5,75.5C 22.5,76.5 22.5,77.5 22.5,78.5C 21.1667,78.8333 19.8333,79.1667 18.5,79.5C 18.5,78.8333 18.5,78.1667 18.5,77.5C 19.3382,77.1583 19.6716,76.4916 19.5,75.5 Z"/></g>
<g><path style="opacity:0.769" fill="#555453" d="M 22.5,75.5 C 23.5,75.5 24.5,75.5 25.5,75.5C 26.791,75.2627 27.791,75.596 28.5,76.5C 27.8333,76.5 27.5,76.8333 27.5,77.5C 27.1667,77.5 26.8333,77.5 26.5,77.5C 25.791,76.596 24.791,76.2627 23.5,76.5C 23.2155,78.4147 23.5489,80.0813 24.5,81.5C 24.5,81.8333 24.5,82.1667 24.5,82.5C 24.5,83.5 24.5,84.5 24.5,85.5C 24.1667,85.5 23.8333,85.5 23.5,85.5C 23.7373,84.209 23.404,83.209 22.5,82.5C 22.5,81.1667 22.5,79.8333 22.5,78.5C 22.5,77.5 22.5,76.5 22.5,75.5 Z"/></g>
<g><path style="opacity:1" fill="#211b14" d="M 27.5,77.5 C 27.5,76.8333 27.8333,76.5 28.5,76.5C 30.8333,76.5 33.1667,76.5 35.5,76.5C 35.5,77.1667 35.5,77.8333 35.5,78.5C 34.8333,78.5 34.1667,78.5 33.5,78.5C 31.7354,77.5386 29.7354,77.2053 27.5,77.5 Z"/></g>
<g><path style="opacity:0.945" fill="#342823" d="M 52.5,74.5 C 52.5,75.5 52.5,76.5 52.5,77.5C 52.1667,77.5 51.8333,77.5 51.5,77.5C 50.1667,77.5 48.8333,77.5 47.5,77.5C 45.5,77.5 43.5,77.5 41.5,77.5C 41.5,77.1667 41.5,76.8333 41.5,76.5C 43.1667,76.5 44.8333,76.5 46.5,76.5C 48.8583,76.7475 50.8583,76.0808 52.5,74.5 Z"/></g>
<g><path style="opacity:1" fill="#251f11" d="M 35.5,76.5 C 37.1667,76.5 38.8333,76.5 40.5,76.5C 40.8333,76.5 41.1667,76.5 41.5,76.5C 41.5,76.8333 41.5,77.1667 41.5,77.5C 40.8333,77.8333 40.1667,78.1667 39.5,78.5C 38.1667,78.5 36.8333,78.5 35.5,78.5C 35.5,77.8333 35.5,77.1667 35.5,76.5 Z"/></g>
<g><path style="opacity:1" fill="#251b23" d="M 41.5,77.5 C 43.5,77.5 45.5,77.5 47.5,77.5C 47.4431,78.609 47.1098,79.609 46.5,80.5C 46.1667,80.5 45.8333,80.5 45.5,80.5C 43.7809,79.9779 42.4475,78.9779 41.5,77.5 Z"/></g>
<g><path style="opacity:1" fill="#302a37" d="M 26.5,77.5 C 26.8333,77.5 27.1667,77.5 27.5,77.5C 29.7354,77.2053 31.7354,77.5386 33.5,78.5C 32.8333,79.1667 32.1667,79.8333 31.5,80.5C 30.8333,80.5 30.1667,80.5 29.5,80.5C 28.5084,80.6716 27.8417,80.3382 27.5,79.5C 27.1667,78.8333 26.8333,78.1667 26.5,77.5 Z"/></g>
<g><path style="opacity:1" fill="#1b171b" d="M 41.5,77.5 C 42.4475,78.9779 43.7809,79.9779 45.5,80.5C 43.602,81.0965 41.9354,81.0965 40.5,80.5C 40.1667,79.8333 39.8333,79.1667 39.5,78.5C 40.1667,78.1667 40.8333,77.8333 41.5,77.5 Z"/></g>
<g><path style="opacity:0.792" fill="#362a34" d="M 47.5,77.5 C 48.8333,77.5 50.1667,77.5 51.5,77.5C 50.3406,79.2503 48.674,80.2503 46.5,80.5C 47.1098,79.609 47.4431,78.609 47.5,77.5 Z"/></g>
<g><path style="opacity:0.004" fill="#dbd8dc" d="M 51.5,77.5 C 51.8333,77.5 52.1667,77.5 52.5,77.5C 50.2181,80.1216 47.8848,82.7883 45.5,85.5C 45.5,85.1667 45.5,84.8333 45.5,84.5C 46.4054,83.2976 46.4054,81.9643 45.5,80.5C 45.8333,80.5 46.1667,80.5 46.5,80.5C 48.674,80.2503 50.3406,79.2503 51.5,77.5 Z"/></g>
<g><path style="opacity:1" fill="#212121" d="M 22.5,78.5 C 22.5,79.8333 22.5,81.1667 22.5,82.5C 22.0679,83.7095 21.4013,84.7095 20.5,85.5C 20.5,84.8333 20.1667,84.5 19.5,84.5C 18.962,82.8828 18.6287,81.2161 18.5,79.5C 19.8333,79.1667 21.1667,78.8333 22.5,78.5 Z"/></g>
<g><path style="opacity:0.243" fill="#bfbec8" d="M 26.5,77.5 C 26.8333,78.1667 27.1667,78.8333 27.5,79.5C 26.5041,79.5858 25.6708,79.2524 25,78.5C 24.5172,79.448 24.3505,80.448 24.5,81.5C 23.5489,80.0813 23.2155,78.4147 23.5,76.5C 24.791,76.2627 25.791,76.596 26.5,77.5 Z"/></g>
<g><path style="opacity:0.094" fill="#c6c6c6" d="M 13.5,79.5 C 13.8333,79.5 14.1667,79.5 14.5,79.5C 14.6596,81.153 15.3263,82.4863 16.5,83.5C 16.5,84.1667 16.5,84.8333 16.5,85.5C 14.461,84.089 13.461,82.089 13.5,79.5 Z"/></g>
<g><path style="opacity:0.925" fill="#424242" d="M 15.5,76.5 C 15.5,76.8333 15.5,77.1667 15.5,77.5C 15.8693,79.4412 16.536,81.2745 17.5,83C 17.2716,83.3988 16.9382,83.5654 16.5,83.5C 15.3263,82.4863 14.6596,81.153 14.5,79.5C 14.2627,78.209 14.596,77.209 15.5,76.5 Z"/></g>
<g><path style="opacity:1" fill="#201f21" d="M 33.5,78.5 C 34.1667,78.5 34.8333,78.5 35.5,78.5C 36.8333,78.5 38.1667,78.5 39.5,78.5C 39.8333,79.1667 40.1667,79.8333 40.5,80.5C 38.8102,80.8564 37.8102,81.8564 37.5,83.5C 36.8333,83.8333 36.1667,84.1667 35.5,84.5C 34.4019,83.603 34.4019,82.7697 35.5,82C 34.7562,80.9614 33.7562,80.4614 32.5,80.5C 32.1667,80.5 31.8333,80.5 31.5,80.5C 32.1667,79.8333 32.8333,79.1667 33.5,78.5 Z"/></g>
<g><path style="opacity:0.608" fill="#99999b" d="M 29.5,80.5 C 30.1667,80.5 30.8333,80.5 31.5,80.5C 31.8333,80.5 32.1667,80.5 32.5,80.5C 32.6107,81.1174 32.944,81.6174 33.5,82C 32.2625,82.2321 31.2625,82.7321 30.5,83.5C 29.596,82.791 29.2627,81.791 29.5,80.5 Z"/></g>
<g><path style="opacity:1" fill="#222224" d="M 40.5,80.5 C 41.9354,81.0965 43.602,81.0965 45.5,80.5C 46.4054,81.9643 46.4054,83.2976 45.5,84.5C 43.6017,83.2655 41.935,83.5989 40.5,85.5C 40.1788,83.9519 39.1788,83.2852 37.5,83.5C 37.8102,81.8564 38.8102,80.8564 40.5,80.5 Z"/></g>
<g><path style="opacity:1" fill="#2e2e2f" d="M 32.5,80.5 C 33.7562,80.4614 34.7562,80.9614 35.5,82C 34.4019,82.7697 34.4019,83.603 35.5,84.5C 35.5,85.5 35.5,86.5 35.5,87.5C 35.1667,87.5 34.8333,87.5 34.5,87.5C 34.5,86.1667 33.8333,85.5 32.5,85.5C 32.5,84.1667 31.8333,83.5 30.5,83.5C 31.2625,82.7321 32.2625,82.2321 33.5,82C 32.944,81.6174 32.6107,81.1174 32.5,80.5 Z"/></g>
<g><path style="opacity:1" fill="#1f1f1f" d="M 22.5,82.5 C 23.404,83.209 23.7373,84.209 23.5,85.5C 23.5875,88.5983 23.0875,88.9316 22,86.5C 21.6174,87.056 21.1174,87.3893 20.5,87.5C 20.5,86.8333 20.5,86.1667 20.5,85.5C 21.4013,84.7095 22.0679,83.7095 22.5,82.5 Z"/></g>
<g><path style="opacity:0.522" fill="#9f9fa1" d="M 30.5,83.5 C 31.8333,83.5 32.5,84.1667 32.5,85.5C 31.5,85.1667 30.8333,84.5 30.5,83.5 Z"/></g>
<g><path style="opacity:1" fill="#383839" d="M 37.5,83.5 C 37.9175,84.2216 38.5842,84.7216 39.5,85C 37.3143,85.6036 37.1476,86.7703 39,88.5C 39.3988,88.2716 39.5654,87.9382 39.5,87.5C 40.8333,87.5 41.5,88.1667 41.5,89.5C 39.8333,90.8333 38.1667,90.8333 36.5,89.5C 36.6716,88.5084 36.3382,87.8417 35.5,87.5C 35.5,86.5 35.5,85.5 35.5,84.5C 36.1667,84.1667 36.8333,83.8333 37.5,83.5 Z"/></g>
<g><path style="opacity:0.647" fill="#565655" d="M 15.5,77.5 C 15.8333,77.5 16.1667,77.5 16.5,77.5C 17.1667,78.1667 17.8333,78.8333 18.5,79.5C 18.6287,81.2161 18.962,82.8828 19.5,84.5C 19.19,85.7383 18.69,85.7383 18,84.5C 17.5357,85.0944 17.369,85.7611 17.5,86.5C 16.8333,86.5 16.5,86.1667 16.5,85.5C 16.5,84.8333 16.5,84.1667 16.5,83.5C 16.9382,83.5654 17.2716,83.3988 17.5,83C 16.536,81.2745 15.8693,79.4412 15.5,77.5 Z"/></g>
<g><path style="opacity:0.886" fill="#606061" d="M 45.5,84.5 C 45.5,84.8333 45.5,85.1667 45.5,85.5C 44.5,87.1667 43.1667,88.5 41.5,89.5C 41.5,88.1667 40.8333,87.5 39.5,87.5C 39.8333,86.8333 40.1667,86.1667 40.5,85.5C 41.935,83.5989 43.6017,83.2655 45.5,84.5 Z"/></g>
<g><path style="opacity:0.986" fill="#515151" d="M 19.5,84.5 C 20.1667,84.5 20.5,84.8333 20.5,85.5C 20.5,86.1667 20.5,86.8333 20.5,87.5C 19.8843,88.2022 19.8843,89.2022 20.5,90.5C 18.7376,89.7377 17.7376,88.4044 17.5,86.5C 17.369,85.7611 17.5357,85.0944 18,84.5C 18.69,85.7383 19.19,85.7383 19.5,84.5 Z"/></g>
<g><path style="opacity:0.659" fill="#909090" d="M 32.5,85.5 C 33.8333,85.5 34.5,86.1667 34.5,87.5C 33.5,87.1667 32.8333,86.5 32.5,85.5 Z"/></g>
<g><path style="opacity:1" fill="#191919" d="M 37.5,83.5 C 39.1788,83.2852 40.1788,83.9519 40.5,85.5C 40.1667,86.1667 39.8333,86.8333 39.5,87.5C 39.5654,87.9382 39.3988,88.2716 39,88.5C 37.1476,86.7703 37.3143,85.6036 39.5,85C 38.5842,84.7216 37.9175,84.2216 37.5,83.5 Z"/></g>
<g><path style="opacity:0.986" fill="#2c2c2c" d="M 23.5,85.5 C 23.8333,85.5 24.1667,85.5 24.5,85.5C 24.4045,88.6916 25.0712,91.6916 26.5,94.5C 25.609,93.8902 24.609,93.5569 23.5,93.5C 21.8564,93.1898 20.8564,92.1898 20.5,90.5C 19.8843,89.2022 19.8843,88.2022 20.5,87.5C 21.1174,87.3893 21.6174,87.056 22,86.5C 23.0875,88.9316 23.5875,88.5983 23.5,85.5 Z"/></g>
<g><path style="opacity:0.667" fill="#8d8d8d" d="M 34.5,87.5 C 34.8333,87.5 35.1667,87.5 35.5,87.5C 36.3382,87.8417 36.6716,88.5084 36.5,89.5C 35.5,89.1667 34.8333,88.5 34.5,87.5 Z"/></g>
<g><path style="opacity:0.784" fill="#828282" d="M 24.5,82.5 C 25.3871,86.0958 26.3871,89.7624 27.5,93.5C 27.5393,95.2239 27.206,95.5573 26.5,94.5C 25.0712,91.6916 24.4045,88.6916 24.5,85.5C 24.5,84.5 24.5,83.5 24.5,82.5 Z"/></g>
<g><path style="opacity:0.576" fill="#a5a5a5" d="M 23.5,93.5 C 24.609,93.5569 25.609,93.8902 26.5,94.5C 27.206,95.5573 27.5393,95.2239 27.5,93.5C 29.1042,94.287 29.7709,95.6203 29.5,97.5C 26.7079,97.3775 24.7079,96.0442 23.5,93.5 Z"/></g>
</svg>
